<?xml version="1.0" encoding="UTF-8"?>
<svg id="Capa_2" xmlns="http://www.w3.org/2000/svg" viewBox="0 0 50 52.32">
  <defs>
    <style>
      .cls-1 {
        fill: #000;
      }
    </style>
  </defs>
  <g id="Capa_1-2" data-name="Capa_1">
    <g>
      <path class="cls-1" d="M11.05,24.42h13.95c.97,0,1.75-.78,1.75-1.74s-.78-1.75-1.75-1.75h-13.95c-.96,0-1.75.78-1.75,1.75s.79,1.74,1.75,1.74Z"/>
      <path class="cls-1" d="M17.15,32.56h-6.1c-.96,0-1.75.78-1.75,1.75s.79,1.74,1.75,1.74h6.1c.96,0,1.75-.78,1.75-1.74s-.79-1.75-1.75-1.75Z"/>
      <path class="cls-1" d="M45.34,28v-11.14c0-7.89-4.24-12.6-11.63-13.24v-1.88c0-.96-.78-1.75-1.74-1.75s-1.75.79-1.75,1.75v1.74h-15.11v-1.74c0-.96-.78-1.75-1.74-1.75s-1.75.79-1.75,1.75v1.88C4.24,4.27,0,8.98,0,16.86v19.76c0,8.49,4.88,13.38,13.38,13.38h15.04c5.19,3.48,12.08,3.02,16.76-1.13,1.11-.93,2.06-2.05,2.79-3.31,1.33-2.17,2.03-4.66,2.03-7.19,0-3.97-1.69-7.73-4.66-10.37ZM44.97,43.77c-.54.94-1.24,1.77-2.07,2.47-1.89,1.69-4.33,2.62-6.86,2.6-2.2,0-4.35-.69-6.11-2-1.15-.83-2.11-1.88-2.84-3.1-2.72-4.48-1.68-10.27,2.43-13.53,3.73-2.9,8.93-2.99,12.76-.21.08.06.17.1.25.16,2.52,1.98,3.99,5.01,3.98,8.21,0,1.91-.52,3.78-1.53,5.39ZM13.38,46.5c-6.65,0-9.88-3.23-9.88-9.88v-19.76c0-6.02,2.68-9.22,8.13-9.77v1.63c0,.97.78,1.75,1.75,1.75s1.74-.78,1.74-1.75v-1.74h15.11v1.74c0,.97.78,1.75,1.75,1.75s1.74-.78,1.74-1.75v-1.63c5.45.55,8.14,3.75,8.14,9.77v8.83c-3.25-1.43-6.92-1.6-10.29-.46-.1.03-.2.06-.3.1-.57.2-1.13.44-1.67.72-.15.08-.3.14-.45.22-.63.36-1.24.76-1.81,1.22-5.48,4.35-6.86,12.09-3.23,18.06.2.33.4.65.63.95h-11.37Z"/>
      <path class="cls-1" d="M38.06,38.88c-.17-.09-.32-.19-.46-.3-.13-.09-.27-.2-.42-.32-.04-.03-.08-.06-.12-.1-.27-.23-.52-.48-.74-.75-.05-.04-.08-.09-.11-.13-.11-.13-.21-.26-.3-.4-.11-.14-.2-.28-.28-.43-.12-.19-.22-.39-.32-.59-.1-.22-.18-.43-.26-.63l-4.21,4.22c-.18.19-.33.42-.43.67-.08.16-.13.33-.16.5l-.33,2.33c-.09.45.05.93.37,1.26.27.25.63.4,1.01.39.08,0,.16,0,.26-.02l2.32-.33c.15-.03.29-.07.42-.12.28-.11.54-.27.75-.47l4.22-4.21c-.2-.07-.4-.15-.61-.25-.21-.1-.41-.21-.6-.32Z"/>
      <path class="cls-1" d="M37.8,32.7c-.29.16-.59.4-.89.7l-.88.87c-.07.08-.1.19-.07.28.56,1.93,2.06,3.44,3.99,4.01.03,0,.06,0,.1,0,.07,0,.15-.03.2-.09l.87-.88c.32-.27.58-.6.76-.97.17-.34.28-.73.31-1.12-.06-.82-.44-1.58-1.07-2.11-1.11-1.12-2.2-1.37-3.32-.7Z"/>
    </g>
  </g>
</svg>