<?xml version="1.0" encoding="UTF-8"?>
<svg id="Capa_2" xmlns="http://www.w3.org/2000/svg" viewBox="0 0 75 52.81">
  <defs>
    <style>
      .cls-1 {
        fill: #000;
      }
    </style>
  </defs>
  <g id="Capa_1-2" data-name="Capa_1">
    <g>
      <path class="cls-1" d="M48.55,52.81c-.9,0-1.79-.23-2.59-.68-1.23-.69-2.13-1.83-2.51-3.19-.01-.04-.02-.09-.04-.13h-4.22l-3.19-7.46,4.79-17.18h34.2v22.65l-5.33-2.06h-3.25l-2.59,2.95-13.84,4.91c-.48.13-.96.2-1.44.2ZM47.7,32.63h8.49v7.71l-8.7,4.91c-1.1.52-1.66,1.75-1.33,2.92.18.64.6,1.17,1.18,1.5.57.32,1.22.4,1.85.24l13.01-4.62,2.95-3.36h5.05l1.99.77v-15.73h-29.24l-3.95,14.16,2.07,4.84h2.42c.41-1.38,1.39-2.58,2.77-3.25l7.13-4.03v-3.25h-3.66l-1.14,3.34-2.66-.91,1.79-5.24Z"/>
      <path class="cls-1" d="M26.45,52.81c-.48,0-.97-.07-1.44-.2l-.09-.03-13.75-4.88-2.59-2.95h-3.25l-5.33,2.06v-22.65h34.2l4.79,17.18-3.19,7.46h-4.22s-.02.09-.04.13c-.38,1.36-1.27,2.5-2.51,3.19-.8.45-1.69.68-2.59.68ZM25.81,49.91c.63.16,1.28.08,1.85-.24.58-.33,1-.86,1.18-1.5.33-1.17-.23-2.4-1.33-2.92l-.09-.05-8.6-4.86v-7.71h8.49l1.79,5.24-2.66.91-1.14-3.34h-3.66v3.25l7.13,4.03c1.38.67,2.35,1.87,2.77,3.25h2.42l2.07-4.84-3.95-14.16H2.82v15.73l1.99-.77h5.05l2.95,3.36,13.01,4.62Z"/>
      <rect class="cls-1" x="27.51" y="5.73" width="2.82" height="10.99" transform="translate(-.55 20.93) rotate(-39.45)"/>
      <rect class="cls-1" x="40.58" y="9.82" width="10.99" height="2.82" transform="translate(8.13 39.67) rotate(-50.55)"/>
      <rect class="cls-1" x="36.09" width="2.82" height="9.77"/>
    </g>
  </g>
</svg>