<?xml version="1.0" encoding="UTF-8"?>
<svg id="Capa_2" xmlns="http://www.w3.org/2000/svg" viewBox="0 0 56.79 56.79">
  <defs>
    <style>
      .cls-1 {
        fill: #000;
      }
    </style>
  </defs>
  <g id="Capa_1-2" data-name="Capa_1">
    <g>
      <g id="Layer_1">
        <path class="cls-1" d="M52.93,25.82h-19.36v-3.88c-.02-3.93-2.57-7.4-6.33-8.57,1.52-1.48,2.4-3.5,2.45-5.63-.11-4.23-3.51-7.63-7.74-7.74-4.23.11-7.63,3.52-7.74,7.74.05,2.13.93,4.15,2.45,5.63-3.76,1.17-6.31,4.64-6.33,8.57v3.88H3.88c-2.14,0-3.88,1.73-3.88,3.87v23.24c0,2.14,1.74,3.87,3.88,3.87h49.05c2.14,0,3.87-1.73,3.87-3.87v-23.24c0-2.14-1.73-3.87-3.87-3.87ZM21.94,2.58c2.85,0,5.16,2.32,5.16,5.16s-2.31,5.16-5.16,5.16-5.16-2.31-5.16-5.16,2.31-5.16,5.16-5.16ZM12.91,21.94c0-3.56,2.9-6.46,6.46-6.46h5.16c3.57,0,6.46,2.9,6.46,6.46v3.88H12.91v-3.88ZM54.21,52.93c0,.71-.58,1.29-1.29,1.29H3.88c-.72,0-1.29-.58-1.29-1.29v-23.24c0-.71.58-1.29,1.29-1.29h49.05c.71,0,1.29.58,1.29,1.29v23.24Z"/>
        <path class="cls-1" d="M45.18,33.56H11.62c-.71,0-1.29.58-1.29,1.29s.58,1.29,1.29,1.29h33.56c.71,0,1.29-.58,1.29-1.29s-.58-1.29-1.29-1.29Z"/>
      </g>
      <g>
        <path class="cls-1" d="M44.45,19.32c0,.1-.04.19-.11.26-.06.07-.15.11-.25.11h-2.73c-.1,0-.19-.04-.26-.11-.07-.06-.11-.15-.11-.26,0-.95.76-1.7,1.69-1.7h.07c.93,0,1.69.76,1.69,1.69Z"/>
        <path class="cls-1" d="M47.2,24.52c0,.05-.01.11-.03.15-.06.13-.18.21-.33.21h-8.22c-.14,0-.27-.09-.33-.21-.02-.04-.03-.1-.03-.15,0-.12,0-.25.02-.36.03-.46.14-.89.3-1.28.47-1.1,1.46-1.89,2.83-2.21v-.12c0-.2.17-.36.36-.36h1.93c.2,0,.36.16.36.36v.12c1.98.45,3.15,1.87,3.15,3.86Z"/>
      </g>
    </g>
  </g>
</svg>