<svg xmlns="http://www.w3.org/2000/svg" viewBox="0 0 82 82" style="color:#C1AA7F">
  <g fill="currentColor">
      <path class="cls-1" d="M10.62,21.48L.13,40.39c-.28.51-.1,1.14.41,1.43.01,0,.03.01.04.02l6.29,3.15c.5.25,1.11.06,1.38-.43l.27-.49c.53,1.59,1.17,3.15,1.9,4.66-1.18,1.66-.8,3.97.87,5.16.63.45,1.38.69,2.15.69h.12s.04,0,.06,0v.56c0,2.01,1.63,3.64,3.64,3.64h.38c.18,0,.35-.03.52-.06.2,1.96,1.96,3.39,3.92,3.19.1,0,.19-.02.29-.04.02.22.07.43.13.64l.05.15c.47,1.36,1.73,2.29,3.17,2.33l.79.02h.13c1.29,0,2.51-.6,3.3-1.62l.31.11c3.87,1.39,8.19.44,11.11-2.45.06,0,.12.01.18.01,2.15-.01,4.16-1.04,5.43-2.77l1.01-1.51c1.39-.45,2.55-1.43,3.22-2.74l.73-1.09c.84-.34,1.54-.95,2.01-1.73.75-1.27.79-2.85.1-4.16l2.58-2.62.1.17c.28.48.88.65,1.38.4l6.29-3.18c.52-.26.72-.89.46-1.41-.01-.02-.02-.04-.03-.06l-10.48-17.82c-.28-.48-.88-.65-1.38-.4l-6.29,3.18c-.52.26-.72.89-.46,1.41.01.02.02.04.03.06l.92,1.56c-1.98.49-4.05.46-6.01-.1-2.24-.64-4.61-.7-6.88-.18l-9.24,2.13c-2.34-.47-4.49-1.62-6.17-3.31l-.54-.54.38-.68c.28-.51.1-1.14-.41-1.43-.01,0-.02-.01-.04-.02l-6.29-3.18c-.5-.25-1.12-.06-1.39.43h0ZM13.45,52.47c-.89,0-1.61-.73-1.61-1.62,0-.35.11-.69.32-.97l1.51-2.01c.31-.41.78-.65,1.29-.65h.2c.89,0,1.61.72,1.61,1.61v.43c0,.43-.17.84-.47,1.14l-1.59,1.58c-.3.3-.71.47-1.14.47h-.12ZM17.27,56.66c-.85,0-1.55-.69-1.55-1.55v-.52c0-.41.16-.8.45-1.09,0,0,.02-.01.02-.02l1.58-1.59s.02-.02.03-.04l2.09-2.09c.29-.29.68-.45,1.09-.45h.2c.85,0,1.55.69,1.55,1.55,0,.36-.13.71-.36.99l-3.39,4.07-.14.17c-.29.35-.73.56-1.19.56h-.39ZM21.79,59.81c-.85,0-1.55-.69-1.55-1.55,0-.36.13-.71.36-.99l3.39-4.07.14-.17c.31-.37.77-.57,1.25-.56.85,0,1.55.69,1.55,1.55,0,.36-.13.71-.36.99l-3.54,4.25c-.31.36-.77.57-1.25.55ZM26.6,62.9l-.79-.02c-.57-.02-1.07-.39-1.25-.92l-.05-.15c-.15-.45-.06-.95.24-1.32l3.45-4.14.2-.24c.26-.31.64-.49,1.05-.49h.66c.75,0,1.37.6,1.37,1.36,0,.27-.08.54-.23.77l-2.82,4.23c-.4.6-1.09.95-1.81.93ZM53.06,24.46l9.42,16.01-4.42,2.24-9.42-16.01,4.42-2.24ZM34.78,30.12c1.93-.44,3.93-.39,5.83.15,2.51.72,5.18.71,7.68-.04l7.26,12.35-2.86,2.91c-4.58-3.64-9.47-6.87-14.61-9.67l.83-.13-.33-2.07-3.15.51c-2.02.33-4.05.5-6.1.53-.48,0-.89.33-1,.79l-.25,1.02c-.35,1.4-1.61,2.38-3.05,2.38h-2.55l2.41-6.44,9.89-2.28ZM17.42,28.38c1.54,1.54,3.41,2.7,5.47,3.4l-2.9,7.74c-.2.54.07,1.15.62,1.35.12.04.24.07.37.07h4.06c2.41,0,4.5-1.64,5.09-3.97l.06-.24c1.47-.05,2.94-.18,4.4-.38,6.06,3.07,11.78,6.76,17.09,11,.84.68,1.06,1.88.5,2.81-.62,1.03-1.95,1.36-2.97.74-.02,0-.03-.02-.05-.03l-8.75-5.57-1.13,1.77,8.74,5.56c.4.25.83.43,1.29.54-.92,1.68-3.02,2.29-4.69,1.38,0,0,0,0,0,0l-7.42-4.04-1,1.84,7.42,4.05c.55.29,1.14.5,1.75.6l-.06.1c-1.45,1.95-4.15,2.45-6.2,1.15l-3.94-2.46-1.11,1.78,3.94,2.46c.26.16.54.31.82.44-2.22,1.56-5.05,1.97-7.62,1.12l1.78-2.68c1.06-1.59.64-3.74-.95-4.8-.57-.38-1.24-.59-1.93-.59h-.65c-.15,0-.29.02-.44.05-.03-.24-.08-.47-.15-.7-.51-1.51-1.93-2.51-3.52-2.49-.18,0-.35.03-.52.06-.03-.24-.08-.48-.15-.71-.5-1.49-1.89-2.49-3.46-2.49h-.2c-.81,0-1.59.28-2.23.78-.39-1.68-1.88-2.87-3.61-2.88h-.2c-1.17,0-2.27.55-2.97,1.48l-.15.2c-.72-1.61-1.32-3.26-1.8-4.95l-.1-.35,7.36-13.25.12.11ZM6.91,42.66l-4.41-2.21,9.46-17.07,4.42,2.24-9.47,17.04Z"/>
      <path class="cls-1" d="M21.34,16.04l10.48,8.87c.39.33.96.33,1.35,0l10.48-8.87c2.23-1.88,3.52-4.66,3.52-7.58,0-4.67-3.79-8.46-8.46-8.46-2.24,0-4.4.89-5.98,2.48l-.23.23-.23-.23c-3.3-3.3-8.66-3.3-11.97,0-1.59,1.59-2.48,3.74-2.48,5.98,0,2.92,1.28,5.69,3.52,7.58ZM26.28,2.1c1.69,0,3.31.67,4.5,1.86l.97.97c.41.41,1.07.41,1.48,0l.97-.97c2.49-2.49,6.52-2.49,9,0,1.19,1.19,1.86,2.81,1.86,4.5,0,2.3-1.01,4.49-2.77,5.98l-9.81,8.3-9.81-8.3c-1.76-1.49-2.78-3.68-2.77-5.98,0-3.51,2.85-6.36,6.36-6.36Z"/>
    </g>
</svg>