<svg xmlns="http://www.w3.org/2000/svg" viewBox="0 0 82 82" style="color:#C1AA7F">
  <g fill="currentColor">
      <path class="cls-1" d="M62.96,32.03c-1.66-.82-3.67-.29-4.7,1.26l-7.39,11.17-2.81.56,1.48-1.76c.76-.96,1.08-2.19.9-3.4-.18-1.21-.87-2.28-1.89-2.95-1.63-1.06-3.75-.93-5.24.31l-6.75,5.61c-1.66,1.42-2.6,3.49-2.59,5.67v15.01c0,.82.66,1.48,1.48,1.48h10.34c.82,0,1.48-.66,1.48-1.48v-3.68l9.72-6.94c.19-.14.35-.32.46-.53l6.68-13.3c.58-1.16.88-2.44.87-3.74,0-1.4-.79-2.67-2.04-3.29h0ZM61.48,37.69l-6.5,13.01-10.05,7.18c-.39.28-.62.72-.62,1.2v2.95h-7.39v-13.53c0-1.3.57-2.53,1.55-3.37l6.62-5.67c.48-.38,1.16-.42,1.68-.1.34.21.56.57.62.96.05.39-.06.78-.3,1.09l-3.94,4.93c-.51.64-.41,1.57.23,2.08.35.28.81.39,1.25.29l7.39-1.48c.39-.07.72-.3.93-.64l7.79-11.67c.22-.33.67-.43,1-.21.21.13.33.36.33.61-.01.82-.21,1.63-.59,2.36h0Z"/>
      <path class="cls-1" d="M7.55,52.36c.11.21.26.39.46.53l9.72,6.94v3.68c0,.82.66,1.48,1.48,1.48h10.34c.82,0,1.48-.66,1.48-1.48v-15.01c.02-2.18-.93-4.26-2.59-5.67l-6.62-5.61c-1.5-1.24-3.62-1.36-5.24-.3-1.02.67-1.71,1.75-1.89,2.95-.18,1.21.15,2.44.9,3.4l1.4,1.76-2.81-.56-7.39-11.17c-1.08-1.72-3.35-2.24-5.07-1.17C.63,32.82-.02,34.03,0,35.33c0,1.28.3,2.54.87,3.68l6.68,13.35ZM3.35,34.63c.33-.17.73-.06.93.25l7.79,11.67c.21.33.54.56.93.64l7.39,1.48c.8.18,1.59-.32,1.76-1.12.1-.44,0-.9-.29-1.25l-3.97-4.95c-.24-.31-.35-.7-.3-1.09.06-.4.28-.75.62-.96.53-.32,1.2-.28,1.68.1l6.69,5.73c.96.86,1.5,2.08,1.48,3.37v13.53h-7.39v-2.95c0-.48-.23-.92-.62-1.2l-10.05-7.18-6.5-13.01c-.37-.73-.56-1.54-.56-2.36,0-.27.15-.53.4-.65v-.04Z"/>
      <path class="cls-1" d="M16.38,25.1l15.16,12.99c.55.47,1.37.47,1.92,0l15.16-12.99c3.85-3.3,6.06-8.12,6.04-13.19C54.65,5.32,49.29-.01,42.7,0c-3.15,0-6.16,1.26-8.4,3.48l-1.8,1.82-1.8-1.82c-4.67-4.65-12.23-4.63-16.88.04-2.22,2.23-3.47,5.25-3.48,8.4-.02,5.07,2.19,9.89,6.04,13.19h0ZM22.29,2.94c2.38,0,4.66.94,6.34,2.63l2.85,2.85c.57.58,1.51.58,2.09,0,0,0,0,0,0,0l2.85-2.85c1.67-1.68,3.94-2.63,6.31-2.63,4.95,0,8.97,4.01,8.97,8.97,0,0,0,0,0,0,0,4.19-1.83,8.17-5.01,10.9l-14.2,12.16-14.2-12.16c-3.18-2.73-5.01-6.71-5.01-10.9,0-4.95,4.01-8.97,8.97-8.97h.03Z"/>
    </g>

</svg>