<svg xmlns="http://www.w3.org/2000/svg" viewBox="0 0 82 82" style="color:#C1AA7F">
  <g fill="currentColor">
      <path class="cls-1" d="M21.55,55.06c.59-.71.49-1.77-.22-2.36-.3-.25-.68-.39-1.07-.39h-.22c-.44,0-.87.17-1.18.49l-2.26,2.26s-.02.03-.03.04l-1.72,1.72s-.02.01-.02.02c-.31.31-.49.74-.49,1.18v.57c0,.92.75,1.67,1.68,1.68h.42c.5,0,.97-.22,1.29-.6l.16-.19,3.67-4.41h0Z"/>
      <path class="cls-1" d="M15.47,52.26v-.46c0-.97-.78-1.75-1.75-1.75h-.21c-.55,0-1.07.26-1.4.7l-1.63,2.18c-.58.77-.42,1.87.35,2.45.3.23.67.35,1.05.35h.13c.46,0,.91-.18,1.24-.51l1.72-1.72c.33-.33.51-.77.51-1.23Z"/>
      <path class="cls-1" d="M10.26,24.2L0,42.69l4.78,2.39,10.26-18.46-4.79-2.42Z"/>
      <path class="cls-1" d="M26.09,58.47c.59-.71.49-1.77-.22-2.36-.3-.25-.68-.39-1.07-.39-.52-.02-1.02.21-1.35.6l-.16.19-3.68,4.41c-.59.71-.49,1.77.22,2.36.3.25.68.39,1.07.39.52.02,1.02-.21,1.35-.6l3.83-4.6h0Z"/>
      <path class="cls-1" d="M54.79,25.36l-4.78,2.42,10.21,17.35,4.78-2.42-10.21-17.35Z"/>
      <path class="cls-1" d="M41.3,31.66c-2.06-.59-4.23-.64-6.32-.16l-10.71,2.47-2.61,6.98h2.77c1.56,0,2.93-1.06,3.31-2.58l.28-1.1c.13-.5.57-.85,1.09-.86,2.21-.03,4.42-.22,6.61-.57l3.41-.55.36,2.24-.9.15c5.57,3.03,10.87,6.53,15.84,10.47l3.1-3.15-7.88-13.38c-2.71.81-5.6.83-8.33.04h0Z"/>
      <path class="cls-1" d="M53.28,50.16c-5.75-4.59-11.95-8.59-18.52-11.92-1.58.22-3.17.36-4.77.42l-.06.26c-.63,2.53-2.9,4.3-5.51,4.3h-4.4c-.63,0-1.14-.51-1.14-1.14,0-.14.02-.27.07-.4l3.15-8.39c-2.23-.75-4.26-2.01-5.93-3.68l-.12-.12-7.97,14.35.11.38c.52,1.83,1.17,3.62,1.95,5.36l.16-.21c.76-1.01,1.95-1.61,3.22-1.61h.21c1.87,0,3.48,1.3,3.91,3.12.69-.54,1.54-.84,2.41-.85h.22c1.7,0,3.21,1.09,3.75,2.7.08.25.14.51.17.77.19-.03.38-.06.57-.06,1.72-.02,3.26,1.07,3.81,2.7.08.25.14.5.17.76.16-.03.32-.05.48-.05h.7c2.07,0,3.75,1.67,3.76,3.74,0,.74-.22,1.47-.63,2.09l-1.93,2.9c2.79.92,5.85.47,8.26-1.22-.31-.14-.61-.3-.89-.47l-4.27-2.67,1.21-1.93,4.27,2.67c2.22,1.4,5.15.86,6.71-1.25l.07-.11c-.66-.11-1.3-.33-1.89-.65l-8.04-4.38,1.09-1.99,8.04,4.38c1.82.99,4.09.33,5.09-1.49,0,0,0,0,0,0-.49-.12-.96-.31-1.39-.59l-9.48-6.03,1.22-1.92,9.48,6.03c1.09.7,2.55.37,3.24-.72.01-.02.02-.03.03-.05.6-1.01.36-2.31-.55-3.04h0Z"/>
      <path class="cls-1" d="M31.38,60.61c0-.82-.66-1.48-1.48-1.48h-.7c-.44,0-.86.2-1.14.53l-.21.26-3.74,4.48c-.33.4-.43.94-.26,1.43l.06.16c.2.58.74.98,1.36,1l.86.03c.78.02,1.52-.36,1.96-1.01l3.06-4.58c.16-.24.25-.53.25-.82h0Z"/>
      <path class="cls-1" d="M21.15,15.38l11.36,9.61,11.36-9.61c2.16-1.83,3.41-4.52,3.41-7.35C47.28,3.6,43.68,0,39.25,0c-2.13,0-4.17.85-5.68,2.35l-1.06,1.06-1.06-1.06c-3.14-3.14-8.22-3.14-11.36,0-1.51,1.51-2.35,3.55-2.35,5.68,0,2.83,1.25,5.52,3.41,7.35Z"/>
    </g>

</svg>