<svg xmlns="http://www.w3.org/2000/svg" viewBox="0 0 82 82" style="color:#C1AA7F">
  <g fill="currentColor">
      <path class="cls-1" d="M36.29,9.68H13.71C4.87,9.68,0,14.55,0,23.39v22.58c0,8.84,4.87,13.71,13.71,13.71h22.58c8.84,0,13.71-4.87,13.71-13.71v-22.58c0-8.84-4.87-13.71-13.71-13.71ZM45.16,45.97c0,6.22-2.65,8.87-8.87,8.87H13.71c-6.22,0-8.87-2.65-8.87-8.87v-22.58c0-6.22,2.65-8.87,8.87-8.87h22.58c6.22,0,8.87,2.65,8.87,8.87v22.58ZM9.68,2.42c0-1.34,1.08-2.42,2.42-2.42h25.81c1.34,0,2.42,1.08,2.42,2.42s-1.08,2.42-2.42,2.42H12.1c-1.34,0-2.42-1.08-2.42-2.42ZM40.32,66.94c0,1.34-1.08,2.42-2.42,2.42H12.1c-1.34,0-2.42-1.08-2.42-2.42s1.08-2.42,2.42-2.42h25.81c1.34,0,2.42,1.08,2.42,2.42ZM35.48,36.29c0,1.34-1.08,2.42-2.42,2.42h-9.68c-1.34,0-2.42-1.08-2.42-2.42v-9.68c0-1.34,1.08-2.42,2.42-2.42s2.42,1.08,2.42,2.42v7.26h7.26c1.34,0,2.42,1.08,2.42,2.42Z"/>
    </g>

</svg>