<?xml version="1.0" encoding="UTF-8"?>
<svg id="Capa_2" xmlns="http://www.w3.org/2000/svg" viewBox="0 0 50 55.63">
  <defs>
    <style>
      .cls-1 {
        fill: #000;
      }
    </style>
  </defs>
  <g id="Capa_1-2" data-name="Capa_1">
    <g>
      <g id="_01">
        <path class="cls-1" d="M45.21,7.06L30.8,1.15c-3.72-1.54-7.89-1.54-11.6,0L4.78,7.06C1.97,8.34.12,11.1,0,14.19v11.35c.29,13.96,9.7,26.09,23.15,29.84.6.17,1.22.26,1.85.26s1.24-.09,1.84-.26c13.46-3.75,22.86-15.87,23.16-29.84v-11.35c-.13-3.09-1.98-5.85-4.79-7.13ZM46.12,25.54c-.28,12.23-8.53,22.83-20.32,26.11-.53.14-1.08.14-1.61,0-11.79-3.27-20.04-13.88-20.31-26.11v-11.35c.11-1.51,1.02-2.86,2.37-3.54l14.41-5.91c2.77-1.14,5.88-1.14,8.66,0l14.41,5.91c1.37.68,2.27,2.03,2.39,3.54v11.35Z"/>
      </g>
      <path class="cls-1" d="M34.5,23.37l-.05.05h0s-11.67,11.68-11.67,11.68c-.79.79-2.08.79-2.87,0,0,0,0,0,0,0l-4.37-4.39c-.79-.8-.79-2.09,0-2.89.79-.79,2.08-.79,2.88,0l2.94,2.94,10.22-10.22c.78-.81,2.07-.83,2.88-.05.81.78.83,2.07.05,2.88Z"/>
    </g>
  </g>
</svg>