<svg xmlns="http://www.w3.org/2000/svg" viewBox="0 0 82 82" style="color:#C1AA7F">
  <g fill="currentColor">
    <circle cx="18.12" cy="56.25" r="5.72"/>
    <path d="M67.69,10.49c-2.11,0-3.81,1.71-3.81,3.81s1.71,3.81,3.81,3.81,3.81-1.71,3.81-3.81-1.71-3.81-3.81-3.81Z"/>
    <path d="M18.12,38.14C8.11,38.14,0,46.25,0,56.25c0,4.9,2.15,11.13,5.19,16.1,1.54,2.51,3.4,4.85,5.5,6.6,2.08,1.73,4.61,3.05,7.43,3.05s5.36-1.33,7.43-3.05c2.1-1.74,3.96-4.08,5.5-6.6,3.04-4.96,5.19-11.2,5.19-16.1,0-10-8.11-18.12-18.12-18.12ZM26.16,69.36c-1.32,2.15-2.8,3.96-4.28,5.19-1.5,1.25-2.78,1.73-3.77,1.73s-2.27-.48-3.77-1.73c-1.48-1.23-2.96-3.03-4.28-5.19-2.68-4.37-4.35-9.58-4.35-13.11,0-6.85,5.55-12.39,12.39-12.39s12.39,5.55,12.39,12.39c0,3.53-1.67,8.73-4.35,13.11Z"/>
    <path d="M77.72,3.62c-2.7-2.49-6.31-3.62-10.03-3.62s-7.36,1.13-10.08,3.77c-2.74,2.66-4.22,6.53-4.22,11.33,0,2.97,1.08,5.85,2.43,8.34,1.37,2.52,3.13,4.84,4.75,6.74,3.81,4.45,10.48,4.13,14.03-.35,1.64-2.06,3.44-4.58,4.85-7.19,1.37-2.55,2.54-5.49,2.54-8.35,0-4.49-1.53-8.16-4.27-10.68ZM74.42,19.93c-1.19,2.2-2.77,4.42-4.3,6.35-1.41,1.77-3.82,1.79-5.2.18-1.47-1.72-2.96-3.7-4.07-5.75-1.12-2.07-1.74-3.99-1.74-5.61,0-3.62,1.08-5.87,2.48-7.22,1.42-1.38,3.5-2.15,6.1-2.15s4.72.78,6.15,2.1c1.4,1.29,2.43,3.34,2.43,6.48,0,1.43-.63,3.37-1.86,5.63Z"/>
    <path d="M50.08,45.04l-1.23,1.23c-1.12,1.12-1.12,2.93,0,4.04,1.12,1.12,2.93,1.12,4.04,0l1.23-1.23c1.12-1.12,1.12-2.93,0-4.04-1.12-1.12-2.93-1.12-4.04,0Z"/>
    <path d="M41.49,53.62l-.61.61c-1.12,1.12-1.12,2.93,0,4.04,1.12,1.12,2.93,1.12,4.04,0l.61-.61c1.12-1.12,1.12-2.93,0-4.04-1.12-1.12-2.93-1.12-4.04,0Z"/>
    <path d="M58.04,37.07l-.61.61c-1.12,1.12-1.12,2.93,0,4.04,1.12,1.12,2.93,1.12,4.04,0l.61-.61c1.12-1.12,1.12-2.93,0-4.04-1.12-1.12-2.93-1.12-4.04,0Z"/>
  </g>
</svg>