<?xml version="1.0" encoding="UTF-8" standalone="no"?>
<svg
   id="Capa_2"
   viewBox="0 0 523.6897 71.85118"
   version="1.1"
   sodipodi:docname="Recurso 1.svg"
   width="523.6897"
   height="71.851181"
   inkscape:version="1.1.1 (c3084ef, 2021-09-22)"
   xmlns:inkscape="http://www.inkscape.org/namespaces/inkscape"
   xmlns:sodipodi="http://sodipodi.sourceforge.net/DTD/sodipodi-0.dtd"
   xmlns="http://www.w3.org/2000/svg"
   xmlns:svg="http://www.w3.org/2000/svg">
  <sodipodi:namedview
     id="namedview872"
     pagecolor="#ffffff"
     bordercolor="#666666"
     borderopacity="1.0"
     inkscape:pageshadow="2"
     inkscape:pageopacity="0.0"
     inkscape:pagecheckerboard="0"
     showgrid="false"
     inkscape:zoom="2.1730424"
     inkscape:cx="136.44464"
     inkscape:cy="41.646679"
     inkscape:window-width="2560"
     inkscape:window-height="1387"
     inkscape:window-x="0"
     inkscape:window-y="25"
     inkscape:window-maximized="1"
     inkscape:current-layer="g868" />
  <defs
     id="defs826">
    <style
       id="style824">
      .cls-1, .cls-2, .cls-3, .cls-4 {
        fill-rule: evenodd;
      }

      .cls-1, .cls-5 {
        fill: #768a00;
      }

      .cls-6, .cls-2 {
        fill: #fba106;
      }

      .cls-7, .cls-3 {
        fill: #333;
      }

      .cls-4 {
        fill: #dabea9;
      }
    </style>
  </defs>
  <g
     id="g868"
     transform="translate(-21.628662,-14.78499)">
    <g
       id="g856"
       transform="translate(-28.991611,-2.3009215)">
      <g
         id="g832">
        <path
           class="cls-5"
           d="m 167.63,40.36 c 0,0.41 -0.49,0.9 -1.48,1.48 -0.9,0.52 -1.56,0.78 -1.99,0.78 -0.25,0 -0.47,-0.08 -0.64,-0.24 -4.15,-3.74 -8.67,-5.61 -13.54,-5.61 -3.33,0 -6.12,0.64 -8.38,1.93 -2.52,1.45 -4.58,3.74 -6.18,6.88 -1.5,2.95 -2.26,5.95 -2.26,9 0,5.26 1.85,9.74 5.56,13.42 3.71,3.68 8.19,5.52 13.45,5.52 4.51,0 8.15,-1.33 10.9,-3.97 V 56.93 h -13.56 c -0.77,0 -1.16,-0.3 -1.16,-0.91 0,-0.43 0.52,-0.98 1.56,-1.64 1.04,-0.66 1.79,-0.99 2.26,-0.99 h 14.37 c 0.66,0 0.99,0.33 0.99,0.99 v 14.45 c 0,0.98 -2.34,2.79 -7.01,5.42 -3.35,1.88 -6.87,2.82 -10.55,2.82 -5.84,0 -10.84,-2.09 -15.01,-6.28 -4.17,-4.19 -6.26,-9.21 -6.26,-15.07 0,-8.16 4.31,-14.72 12.92,-19.66 3.28,-1.88 6.79,-2.82 10.55,-2.82 1.72,0 3.55,0.28 5.51,0.83 1.74,0.48 3.64,1.28 5.72,2.39 2.81,1.49 4.22,2.79 4.22,3.92 z"
           id="path828" />
        <path
           class="cls-5"
           d="m 216.67,54.57 c 0,8.13 -4.31,14.68 -12.92,19.66 -3.26,1.88 -6.78,2.82 -10.55,2.82 -5.89,0 -10.92,-2.12 -15.09,-6.37 -4.12,-4.19 -6.18,-9.18 -6.18,-14.98 0,-3.85 0.98,-7.42 2.93,-10.72 1.88,-3.21 4.43,-5.74 7.65,-7.6 2.52,-1.45 4.57,-2.45 6.12,-3.01 2.11,-0.77 4.37,-1.15 6.77,-1.15 5.89,0 10.92,2.12 15.09,6.37 4.12,4.19 6.18,9.18 6.18,14.98 z m -4.46,1.13 c 0,-5.23 -1.84,-9.69 -5.52,-13.39 -3.68,-3.7 -8.18,-5.55 -13.5,-5.55 -2.94,0 -5.73,0.64 -8.38,1.93 -2.6,1.75 -4.64,4 -6.12,6.74 -1.54,2.85 -2.31,5.89 -2.31,9.13 0,5.25 1.84,9.71 5.53,13.4 3.69,3.69 8.18,5.53 13.48,5.53 2.94,0 5.73,-0.64 8.38,-1.93 2.6,-1.75 4.64,-4 6.12,-6.74 1.54,-2.85 2.31,-5.89 2.31,-9.13 z"
           id="path830" />
      </g>
      <g
         id="g838">
        <path
           class="cls-6"
           d="m 255.95,34.13 c 0,0.39 -0.22,0.72 -0.67,0.97 -0.5,0.36 -1,0.71 -1.5,1.05 -0.61,0.41 -1.16,0.62 -1.64,0.62 h -10.1 v 37.95 c 0,0.41 -0.42,0.92 -1.28,1.52 -0.85,0.6 -1.6,0.9 -2.24,0.9 -0.64,0 -0.94,-0.34 -0.94,-1.02 V 36.78 h -12.76 c -0.77,0 -1.16,-0.3 -1.16,-0.91 0,-0.39 0.22,-0.72 0.67,-0.97 0.5,-0.36 1,-0.71 1.5,-1.05 0.61,-0.41 1.15,-0.62 1.64,-0.62 h 27.31 c 0.77,0 1.15,0.3 1.15,0.91 z"
           id="path834" />
        <path
           class="cls-6"
           d="m 304.99,54.57 c 0,8.13 -4.31,14.68 -12.92,19.66 -3.26,1.88 -6.78,2.82 -10.55,2.82 -5.89,0 -10.92,-2.12 -15.09,-6.37 -4.12,-4.19 -6.18,-9.18 -6.18,-14.98 0,-3.85 0.98,-7.42 2.93,-10.72 1.88,-3.21 4.43,-5.74 7.65,-7.6 2.52,-1.45 4.57,-2.45 6.12,-3.01 2.11,-0.77 4.37,-1.15 6.77,-1.15 5.89,0 10.92,2.12 15.09,6.37 4.12,4.19 6.18,9.18 6.18,14.98 z m -4.46,1.13 c 0,-5.23 -1.84,-9.69 -5.52,-13.39 -3.68,-3.7 -8.18,-5.55 -13.5,-5.55 -2.94,0 -5.73,0.64 -8.38,1.93 -2.6,1.75 -4.64,4 -6.12,6.74 -1.54,2.85 -2.31,5.89 -2.31,9.13 0,5.25 1.84,9.71 5.53,13.4 3.69,3.69 8.18,5.53 13.48,5.53 2.94,0 5.73,-0.64 8.38,-1.93 2.6,-1.75 4.64,-4 6.12,-6.74 1.54,-2.85 2.31,-5.89 2.31,-9.13 z"
           id="path836" />
      </g>
      <g
         id="g854">
        <path
           class="cls-7"
           d="m 341.61,74.42 c 0,0.39 -0.22,0.72 -0.67,0.97 -0.5,0.36 -1,0.71 -1.5,1.05 -0.61,0.41 -1.16,0.62 -1.64,0.62 h -10.77 c -4.03,0 -7.47,-1.46 -10.31,-4.38 -2.83,-2.87 -4.24,-6.29 -4.24,-10.26 V 56.75 C 312.16,56.57 312,56.32 312,56 c 0,-0.3 0.16,-0.58 0.48,-0.83 v -6.18 c 0,-3.24 0.9,-6.02 2.71,-8.35 1.45,-1.86 3.73,-3.69 6.85,-5.48 2.24,-1.29 4.64,-1.93 7.2,-1.93 h 11.23 c 0.77,0 1.15,0.3 1.15,0.91 0,0.39 -0.22,0.72 -0.67,0.97 -0.5,0.36 -1,0.71 -1.5,1.05 -0.61,0.41 -1.16,0.62 -1.64,0.62 h -10.77 c -1.75,0 -3.43,0.35 -5.02,1.05 -3.38,2.47 -5.08,5.82 -5.08,10.04 v 5.5 h 23.53 c 0.77,0 1.15,0.3 1.15,0.91 0,0.39 -0.22,0.72 -0.67,0.97 -0.5,0.36 -1,0.71 -1.5,1.05 -0.61,0.41 -1.16,0.62 -1.64,0.62 h -20.87 v 4.38 c 0,3.38 1.19,6.27 3.56,8.65 2.37,2.38 5.29,3.57 8.74,3.57 h 11.23 c 0.77,0 1.15,0.3 1.15,0.91 z"
           id="path840" />
        <path
           class="cls-7"
           d="m 385.44,68.08 c 0,0.29 -0.12,0.56 -0.38,0.83 -2.22,2.34 -4.95,4.28 -8.19,5.8 -3.37,1.56 -6.6,2.34 -9.7,2.34 -5.84,0 -10.84,-2.09 -15.01,-6.28 -4.17,-4.19 -6.26,-9.21 -6.26,-15.07 0,-8.16 4.31,-14.72 12.92,-19.66 3.28,-1.88 6.79,-2.82 10.55,-2.82 1.67,0 3.44,0.26 5.32,0.78 1.75,0.48 3.7,1.28 5.83,2.39 2.86,1.5 4.3,2.83 4.3,3.97 0,0.43 -0.49,0.92 -1.48,1.48 -0.9,0.52 -1.56,0.78 -1.99,0.78 -0.25,0 -0.47,-0.08 -0.64,-0.24 -4.14,-3.74 -8.65,-5.61 -13.54,-5.61 -3.35,0 -6.14,0.64 -8.38,1.93 -2.52,1.45 -4.58,3.74 -6.18,6.88 -1.5,2.95 -2.26,5.95 -2.26,9 0,5.26 1.85,9.74 5.56,13.42 3.71,3.68 8.19,5.52 13.45,5.52 3.35,0 6.14,-0.64 8.38,-1.93 0.64,-0.63 1.66,-1.46 3.03,-2.5 l 3.04,-1.75 c 0.21,-0.12 0.44,-0.19 0.67,-0.19 0.63,0 0.94,0.31 0.94,0.94 z"
           id="path842" />
        <path
           class="cls-7"
           d="m 421.05,61.28 c 0,3.24 -0.9,6.02 -2.71,8.35 -1.45,1.86 -3.73,3.69 -6.85,5.48 -2.24,1.29 -4.64,1.93 -7.2,1.93 -4.03,0 -7.47,-1.46 -10.31,-4.38 -2.83,-2.87 -4.24,-6.29 -4.24,-10.26 V 35.54 c 0,-0.41 0.42,-0.92 1.28,-1.52 0.86,-0.6 1.6,-0.9 2.24,-0.9 0.64,0 0.94,0.34 0.94,1.02 v 27.12 c 0,3.38 1.19,6.27 3.56,8.65 2.37,2.38 5.29,3.57 8.74,3.57 1.75,0 3.43,-0.35 5.02,-1.05 3.38,-2.47 5.08,-5.82 5.08,-10.04 V 35.53 c 0,-0.41 0.42,-0.92 1.28,-1.52 0.86,-0.6 1.6,-0.9 2.24,-0.9 0.64,0 0.94,0.34 0.94,1.02 v 27.12 z"
           id="path844" />
        <path
           class="cls-7"
           d="m 456.66,74.71 c 0,0.41 -0.43,0.92 -1.28,1.52 -0.85,0.6 -1.6,0.9 -2.24,0.9 -0.64,0 -0.94,-0.34 -0.94,-1.02 V 60.94 h -22.4 v 13.78 c 0,0.41 -0.43,0.92 -1.28,1.52 -0.85,0.6 -1.6,0.9 -2.24,0.9 -0.64,0 -0.94,-0.34 -0.94,-1.02 V 49 c 0,-3.24 0.9,-6.02 2.71,-8.35 1.45,-1.86 3.73,-3.69 6.85,-5.48 2.24,-1.29 4.64,-1.93 7.2,-1.93 4.03,0 7.46,1.45 10.3,4.34 2.84,2.89 4.26,6.33 4.26,10.3 V 74.74 Z M 452.2,57.39 v -8.41 c 0,-3.38 -1.19,-6.27 -3.56,-8.65 -2.37,-2.38 -5.29,-3.57 -8.74,-3.57 -1.75,0 -3.43,0.35 -5.02,1.05 -3.38,2.47 -5.08,5.82 -5.08,10.04 v 9.53 h 22.4 z"
           id="path846" />
        <path
           class="cls-7"
           d="m 489.61,61.28 c 0,3.24 -0.9,6.02 -2.71,8.35 -1.45,1.86 -3.73,3.69 -6.85,5.48 -2.24,1.29 -4.64,1.93 -7.2,1.93 h -10.88 c -0.68,0 -1.02,-0.33 -1.02,-0.99 v -40.5 c 0,-0.43 0.47,-0.94 1.4,-1.53 0.86,-0.54 1.5,-0.81 1.93,-0.81 h 10.77 c 4.03,0 7.46,1.45 10.3,4.34 2.84,2.89 4.26,6.33 4.26,10.3 z m -4.45,1.13 V 48.98 c 0,-3.38 -1.19,-6.27 -3.56,-8.65 -2.37,-2.38 -5.29,-3.57 -8.74,-3.57 h -7.44 V 73.5 h 9.64 c 1.75,0 3.43,-0.35 5.02,-1.05 3.38,-2.47 5.08,-5.82 5.08,-10.04 z"
           id="path848" />
        <path
           class="cls-7"
           d="m 538.65,54.57 c 0,8.13 -4.31,14.68 -12.92,19.66 -3.26,1.88 -6.78,2.82 -10.55,2.82 -5.89,0 -10.92,-2.12 -15.09,-6.37 -4.12,-4.19 -6.18,-9.18 -6.18,-14.98 0,-3.85 0.98,-7.42 2.93,-10.72 1.88,-3.21 4.43,-5.74 7.65,-7.6 2.52,-1.45 4.57,-2.45 6.12,-3.01 2.11,-0.77 4.37,-1.15 6.77,-1.15 5.89,0 10.92,2.12 15.09,6.37 4.12,4.19 6.18,9.18 6.18,14.98 z m -4.46,1.13 c 0,-5.23 -1.84,-9.69 -5.52,-13.39 -3.68,-3.7 -8.18,-5.55 -13.5,-5.55 -2.94,0 -5.73,0.64 -8.38,1.93 -2.6,1.75 -4.64,4 -6.12,6.74 -1.54,2.85 -2.31,5.89 -2.31,9.13 0,5.25 1.84,9.71 5.53,13.4 3.69,3.69 8.18,5.53 13.48,5.53 2.94,0 5.73,-0.64 8.38,-1.93 2.6,-1.75 4.64,-4 6.12,-6.74 1.54,-2.85 2.31,-5.89 2.31,-9.13 z"
           id="path850" />
        <path
           class="cls-7"
           d="m 574.31,74.6 c 0,0.54 -0.4,1.07 -1.21,1.6 -0.8,0.53 -1.54,0.79 -2.2,0.79 -0.3,0 -0.54,-0.08 -0.7,-0.24 L 557.07,63.62 h -9.67 v 11.09 c 0,0.41 -0.43,0.92 -1.28,1.52 -0.85,0.6 -1.6,0.9 -2.24,0.9 -0.64,0 -0.94,-0.34 -0.94,-1.02 V 48.99 c 0,-3.24 0.9,-6.02 2.71,-8.35 1.45,-1.86 3.73,-3.69 6.85,-5.48 2.24,-1.29 4.64,-1.93 7.2,-1.93 4.03,0 7.46,1.45 10.3,4.34 2.84,2.89 4.26,6.33 4.26,10.3 0,3.24 -0.9,6.02 -2.71,8.35 -1.45,1.86 -3.73,3.69 -6.85,5.48 -0.7,0.39 -1.36,0.72 -1.99,0.97 l 11.31,11.31 c 0.2,0.2 0.29,0.41 0.29,0.64 z M 569.8,48.98 c 0,-3.38 -1.19,-6.27 -3.56,-8.65 -2.37,-2.38 -5.29,-3.57 -8.74,-3.57 -1.75,0 -3.43,0.35 -5.02,1.05 -3.38,2.47 -5.08,5.82 -5.08,10.04 v 12.22 h 12.3 c 1.75,0 3.43,-0.35 5.02,-1.05 3.38,-2.47 5.08,-5.82 5.08,-10.04 z"
           id="path852" />
      </g>
    </g>
    <g
       id="g866"
       transform="matrix(0.704551,0,0,0.704551,21.628662,14.78499)">
      <path
         class="cls-4"
         d="m 0,59.78 c 0,14.82 6.84,24.42 15.24,31.96 4.36,3.92 12.17,7.5 17.9,8.85 9.06,2.12 27.48,1.89 35.19,-1.19 2.83,-1.13 4.03,-2.51 6.83,-3.4 7.63,-2.43 13.13,-0.43 18.45,-0.43 4.54,0 -2.55,-11.41 -12.58,-11.41 h -2.36 c 0,-9.67 4.99,-39.98 -3.93,-47.98 0,14.61 -1.05,26.52 -4.67,37.41 C 64.98,88.91 55.99,96.06 39.39,94.33 16.01,91.89 14.53,69.68 12.75,69.53 5.45,68.79 2.95,65.03 0.01,59.78"
         id="path858" />
      <path
         class="cls-1"
         d="m 51.52,77.87 c 0.5,-1.93 1.08,-4.18 1.48,-6 C 56.77,54.46 46.32,17.85 34.13,4.01 31.51,1.57 28.17,0 23.2,0 c 0.4,1.71 1.58,3.14 2.36,4.72 10.73,21.63 21.17,39.58 21.23,64.89 0.01,4.63 -1.38,15.76 -0.9,19.79 0.14,1.19 0.39,1.8 1.52,-0.08 0.71,-1.17 3.62,-9.6 4.11,-11.45"
         id="path860" />
      <path
         class="cls-2"
         d="m 50.23,83.37 c -1.06,2.67 -3.14,8.49 -1.3,7.29 1.58,-1.03 1.57,-1.04 2.59,-2.09 C 66.96,72.65 64.19,43.31 58.27,25.11 55.44,16.41 52.78,4.72 41.69,4.72 c 0.5,5.99 9.24,20.29 12.36,37.19 3.51,18.99 3.08,24.08 -3.82,41.46"
         id="path862" />
      <path
         class="cls-3"
         d="m 58.52,80.32 c -3.39,6.59 -6.33,7.63 -8.96,10.53 2.78,0.29 11.09,-4.23 15.66,-13.84 7,-14.71 4.89,-37 3.22,-45.55 C 66.77,22.91 65.61,13.92 59,13.37 c -4.21,0.49 0.99,7.42 3.08,20.52 2.08,13.1 3.76,32.23 -3.55,46.43"
         id="path864" />
    </g>
  </g>
</svg>
