<svg xmlns="http://www.w3.org/2000/svg" width="1184" height="121" style="shape-rendering:geometricPrecision;text-rendering:geometricPrecision;image-rendering:optimizeQuality;fill-rule:evenodd;clip-rule:evenodd"><path style="opacity:.93" fill="#2d373d" d="M18.5-.5h23c16.91 5.303 29.91 15.636 39 31 11.226-15.274 25.893-25.608 44-31h23c7.429 4.172 11.929 10.505 13.5 19 .667 32.333.667 64.667 0 97a37.84 37.84 0 0 1-5.5 5h-9c.167-33.335 0-66.668-.5-100-2.807-6.987-7.973-10.32-15.5-10-19.083.907-32.25 10.24-39.5 28a55.902 55.902 0 0 0-4 19l-1 59c-1.397 1.57-2.897 2.904-4.5 4h-9c.167-22.002 0-44.002-.5-66C68.653 35.48 58.153 21.98 40.5 14c-7.406-3.034-15.073-4.034-23-3-2.68 2.194-4.18 5.027-4.5 8.5l-1 97c-1.397 1.57-2.897 2.904-4.5 4h-8v-105c5.086-6.748 11.42-12.081 19-16z"/><path style="opacity:.938" fill="#2d373d" d="M211.5-.5h23c14.822 5.326 24.322 15.66 28.5 31 .667 28.667.667 57.333 0 86-1.397 1.57-2.897 2.904-4.5 4h-9v-43h-60c.167 13.004 0 26.004-.5 39-1.397 1.57-2.897 2.904-4.5 4h-9c-.46-30.042.04-60.042 1.5-90 4.688-12.023 12.855-20.856 24.5-26.5 3.393-1.62 6.726-3.12 10-4.5zm-1 11c20.433-1.71 33.267 7.29 38.5 27 .5 9.327.666 18.66.5 28h-60c-.166-9.672 0-19.34.5-29 1.562-13.038 8.395-21.705 20.5-26z"/><path style="opacity:.906" fill="#2d373d" d="M329.5-.5h27c8.646 2.947 16.979 6.78 25 11.5 7.155 6.07 6.488 11.07-2 15-1.667.667-3.333.667-5 0-15.568-14.38-33.568-18.714-54-13-13.848 6.15-22.682 16.65-26.5 31.5-5.689 29.455 5.144 50.288 32.5 62.5 12.928 3.817 25.595 3.15 38-2a151.235 151.235 0 0 1 17-12c5.594-1.913 7.761-.08 6.5 5.5-10.649 10.571-23.149 17.905-37.5 22h-28c-37.288-14.237-51.121-40.903-41.5-80 10.242-20.746 26.408-34.413 48.5-41z"/><path style="opacity:.917" fill="#2d373d" d="M408.5-.5h9a771.063 771.063 0 0 1 1 55h59c-.167-16.67 0-33.337.5-50a31.474 31.474 0 0 0 4.5-5h10a872.62 872.62 0 0 0 1 58 1812.69 1812.69 0 0 0-1.5 58c-1.193 1.997-2.693 3.664-4.5 5h-9a771.064 771.064 0 0 1-1-55h-59c.167 16.67 0 33.337-.5 50a31.447 31.447 0 0 0-4.5 5h-10a872.618 872.618 0 0 0-1-58 1812.69 1812.69 0 0 0 1.5-58c1.193-1.997 2.693-3.664 4.5-5z"/><path style="opacity:.942" fill="#2d373d" d="M512.5-.5h9c-.458 28.709.042 57.376 1.5 86 7.311 19.407 21.144 26.907 41.5 22.5 7.809-3.426 12.976-9.26 15.5-17.5a2015.65 2015.65 0 0 0 2-87 32.578 32.578 0 0 0 4.5-4h9c.469 30.383-.031 60.717-1.5 91-2.899 7.284-7.399 13.451-13.5 18.5a100.082 100.082 0 0 1-20 11.5h-24c-15.056-6.059-24.556-17.059-28.5-33-.667-28-.667-56 0-84 1.397-1.57 2.897-2.904 4.5-4z"/><path style="opacity:.925" fill="#2d373d" d="M646.5-.5h23c24.198 10.059 33.365 28.059 27.5 54-8.088 16.08-20.921 26.247-38.5 30.5-12.744 2.123-23.911-1.043-33.5-9.5l-1 42c-1.397 1.57-2.897 2.904-4.5 4h-9c-.468-29.717.032-59.383 1.5-89 2.457-8.74 7.29-15.906 14.5-21.5 6.371-4.238 13.037-7.738 20-10.5zm-1 11c22.887-.94 35.887 9.893 39 32.5-1.96 23.14-14.293 32.472-37 28-19.095-8.692-25.929-23.192-20.5-43.5 3.89-8.4 10.057-14.067 18.5-17z"/><path style="opacity:.954" fill="#2d373d" d="M717.5-.5h9c.167 39.001 0 78.001-.5 117-1.397 1.57-2.897 2.904-4.5 4h-9c-.167-39.001 0-78.001.5-117 1.397-1.57 2.897-2.904 4.5-4z"/><path style="opacity:.906" fill="#2d373d" d="M792.5-.5h27c8.646 2.947 16.979 6.78 25 11.5 7.155 6.07 6.488 11.07-2 15-1.667.667-3.333.667-5 0-15.568-14.38-33.568-18.714-54-13-13.848 6.15-22.682 16.65-26.5 31.5-5.689 29.455 5.144 50.288 32.5 62.5 12.928 3.817 25.595 3.15 38-2a151.235 151.235 0 0 1 17-12c5.594-1.913 7.761-.08 6.5 5.5-10.649 10.571-23.149 17.905-37.5 22h-28c-37.288-14.237-51.121-40.903-41.5-80 10.242-20.746 26.408-34.413 48.5-41zM917.5-.5h27c8.646 2.947 16.979 6.78 25 11.5 7.155 6.07 6.488 11.07-2 15-1.667.667-3.333.667-5 0-15.568-14.38-33.568-18.714-54-13-13.848 6.15-22.682 16.65-26.5 31.5-5.689 29.455 5.144 50.288 32.5 62.5 12.928 3.817 25.595 3.15 38-2a151.235 151.235 0 0 1 17-12c5.594-1.913 7.761-.08 6.5 5.5-10.649 10.571-23.149 17.905-37.5 22h-28c-37.288-14.237-51.121-40.903-41.5-80 10.242-20.746 26.408-34.413 48.5-41z"/><path style="opacity:.917" fill="#2d373d" d="M996.5-.5h9c.99 18.257 1.32 36.59 1 55h59c-.17-16.67 0-33.337.5-50a31.186 31.186 0 0 0 4.5-5h10c-.31 19.36.02 38.694 1 58-.81 19.309-1.31 38.642-1.5 58-1.19 1.997-2.69 3.664-4.5 5h-9a768.716 768.716 0 0 1-1-55h-59c.17 16.67 0 33.337-.5 50a31.16 31.16 0 0 0-4.5 5h-10a872.618 872.618 0 0 0-1-58 1812.69 1812.69 0 0 0 1.5-58c1.193-1.997 2.693-3.664 4.5-5z"/><path style="opacity:.941" fill="#2d373d" d="M1101.5-.5h9c-.46 28.709.04 57.376 1.5 86 7.31 19.407 21.14 26.907 41.5 22.5 7.81-3.426 12.98-9.26 15.5-17.5 1.29-28.96 1.96-57.96 2-87a32.233 32.233 0 0 0 4.5-4h8v91c-7.24 14.574-18.58 24.574-34 30h-24c-15.06-6.059-24.56-17.059-28.5-33-.67-28-.67-56 0-84 1.4-1.57 2.9-2.904 4.5-4z"/></svg>