<?xml version="1.0" encoding="UTF-8" standalone="no"?>
<svg
   id="Capa_2"
   viewBox="0 0 523.6897 71.85118"
   version="1.1"
   sodipodi:docname="Recurso 1.svg"
   width="523.6897"
   height="71.851181"
   inkscape:version="1.1.1 (c3084ef, 2021-09-22)"
   xmlns:inkscape="http://www.inkscape.org/namespaces/inkscape"
   xmlns:sodipodi="http://sodipodi.sourceforge.net/DTD/sodipodi-0.dtd"
   xmlns="http://www.w3.org/2000/svg"
   xmlns:svg="http://www.w3.org/2000/svg">
  <defs
     id="defs826">
    <style
       id="style824">
      .cls-1, .cls-2, .cls-3, .cls-4 {
        fill-rule: evenodd;
      }

      .cls-1, .cls-5 {
        fill: #768a00;
      }

      .cls-6, .cls-2 {
        fill: #fba106;
      }

      .cls-7, .cls-3 {
        fill: #333;
      }

      .cls-4 {
        fill: #dabea9;
      }
    </style>
  </defs>
  <g
     id="g868"
     transform="translate(-21.628662,-14.78499)">
    <g
       id="g856"
       transform="translate(-28.991611,-2.3009215)">
      <g
         id="g832">
        <text
           xml:space="preserve"
           style="font-style:normal;font-variant:normal;font-weight:normal;font-stretch:normal;font-size:55.5123px;line-height:1.25;font-family:Bolonewt;-inkscape-font-specification:Bolonewt;fill:#000000;fill-opacity:1;stroke:none;stroke-width:1.3878"
           x="126.8651"
           y="77.488426"
           id="text5623"><tspan
             sodipodi:role="line"
             id="tspan5621"
             x="126.8651"
             y="77.488426"
             style="stroke-width:1.3878"><tspan
   style="fill:#7d8506;fill-opacity:1;stroke-width:1.3878"
   id="tspan25586">GO</tspan><tspan
   style="fill:#f9a825;fill-opacity:1;stroke-width:1.3878"
   id="tspan32694">TO</tspan>ECUADOR</tspan></text>
      </g>
    </g>
    <g
       id="g866"
       transform="matrix(0.704551,0,0,0.704551,21.628662,14.78499)">
      <path
         class="cls-4"
         d="m 0,59.78 c 0,14.82 6.84,24.42 15.24,31.96 4.36,3.92 12.17,7.5 17.9,8.85 9.06,2.12 27.48,1.89 35.19,-1.19 2.83,-1.13 4.03,-2.51 6.83,-3.4 7.63,-2.43 13.13,-0.43 18.45,-0.43 4.54,0 -2.55,-11.41 -12.58,-11.41 h -2.36 c 0,-9.67 4.99,-39.98 -3.93,-47.98 0,14.61 -1.05,26.52 -4.67,37.41 C 64.98,88.91 55.99,96.06 39.39,94.33 16.01,91.89 14.53,69.68 12.75,69.53 5.45,68.79 2.95,65.03 0.01,59.78"
         id="path858" />
      <path
         class="cls-1"
         d="m 51.52,77.87 c 0.5,-1.93 1.08,-4.18 1.48,-6 C 56.77,54.46 46.32,17.85 34.13,4.01 31.51,1.57 28.17,0 23.2,0 c 0.4,1.71 1.58,3.14 2.36,4.72 10.73,21.63 21.17,39.58 21.23,64.89 0.01,4.63 -1.38,15.76 -0.9,19.79 0.14,1.19 0.39,1.8 1.52,-0.08 0.71,-1.17 3.62,-9.6 4.11,-11.45"
         id="path860" />
      <path
         class="cls-2"
         d="m 50.23,83.37 c -1.06,2.67 -3.14,8.49 -1.3,7.29 1.58,-1.03 1.57,-1.04 2.59,-2.09 C 66.96,72.65 64.19,43.31 58.27,25.11 55.44,16.41 52.78,4.72 41.69,4.72 c 0.5,5.99 9.24,20.29 12.36,37.19 3.51,18.99 3.08,24.08 -3.82,41.46"
         id="path862" />
      <path
         class="cls-3"
         d="m 58.52,80.32 c -3.39,6.59 -6.33,7.63 -8.96,10.53 2.78,0.29 11.09,-4.23 15.66,-13.84 7,-14.71 4.89,-37 3.22,-45.55 C 66.77,22.91 65.61,13.92 59,13.37 c -4.21,0.49 0.99,7.42 3.08,20.52 2.08,13.1 3.76,32.23 -3.55,46.43"
         id="path864" />
    </g>
  </g>
</svg>
