<?xml version="1.0" encoding="UTF-8"?>
<svg id="Capa_2" xmlns="http://www.w3.org/2000/svg" viewBox="0 0 333.14 46.61">
  <defs>
    <style>
      .cls-1 {
        fill: #fff;
      }

      .cls-2 {
        fill: #fba106;
      }

      .cls-3 {
        fill: #768a00;
      }
    </style>
  </defs>
  <g id="Page_1">
    <g>
      <g>
        <path class="cls-3" d="M41.24,7.66c0,.44-.52.96-1.56,1.57-.95.55-1.65.83-2.11.83-.27,0-.49-.08-.68-.26-4.4-3.96-9.18-5.95-14.34-5.95-3.53,0-6.49.68-8.88,2.05-2.68,1.54-4.86,3.96-6.55,7.29-1.59,3.13-2.39,6.31-2.39,9.53,0,5.58,1.96,10.32,5.89,14.21s8.68,5.85,14.26,5.85c4.78,0,8.63-1.4,11.55-4.21v-13.38h-14.37c-.82,0-1.22-.32-1.22-.97,0-.46.55-1.03,1.65-1.74,1.1-.7,1.9-1.05,2.39-1.05h15.23c.7,0,1.05.35,1.05,1.05v15.31c0,1.04-2.48,2.96-7.43,5.75-3.55,1.99-7.28,2.99-11.18,2.99-6.19,0-11.49-2.22-15.91-6.66S0,30.11,0,23.91C0,15.25,4.56,8.31,13.69,3.07,17.16,1.08,20.89.09,24.87.09c1.82,0,3.77.29,5.83.88,1.84.51,3.86,1.36,6.06,2.53,2.98,1.58,4.47,2.96,4.47,4.15Z"/>
        <path class="cls-3" d="M93.2,22.71c0,8.61-4.56,15.56-13.69,20.83-3.45,1.99-7.18,2.99-11.18,2.99-6.24,0-11.57-2.25-15.99-6.74-4.36-4.44-6.54-9.73-6.54-15.88,0-4.08,1.03-7.86,3.1-11.35,1.99-3.4,4.7-6.08,8.11-8.05,2.67-1.54,4.84-2.6,6.49-3.19,2.24-.82,4.63-1.22,7.17-1.22,6.24,0,11.57,2.25,15.99,6.74,4.36,4.44,6.54,9.73,6.54,15.88ZM88.48,23.91c0-5.54-1.95-10.27-5.85-14.19-3.9-3.92-8.67-5.88-14.3-5.88-3.11,0-6.07.68-8.88,2.05-2.75,1.86-4.91,4.24-6.49,7.14-1.63,3.02-2.45,6.24-2.45,9.68,0,5.56,1.95,10.29,5.86,14.2,3.91,3.91,8.67,5.86,14.29,5.86,3.11,0,6.07-.68,8.88-2.05,2.75-1.86,4.91-4.24,6.49-7.14,1.63-3.02,2.45-6.24,2.45-9.68Z"/>
      </g>
      <g>
        <path class="cls-2" d="M131.97,1.05c0,.42-.24.76-.71,1.02-.53.38-1.06.75-1.59,1.11-.65.44-1.22.65-1.74.65h-10.7v40.21c0,.44-.45.97-1.35,1.61-.9.64-1.69.95-2.38.95s-1-.36-1-1.08V3.84h-13.52c-.82,0-1.22-.32-1.22-.97,0-.42.24-.76.71-1.02.53-.38,1.06-.75,1.59-1.11.65-.44,1.22-.65,1.74-.65h28.94c.82,0,1.22.32,1.22.97Z"/>
        <path class="cls-2" d="M183.93,22.71c0,8.61-4.56,15.56-13.69,20.83-3.45,1.99-7.18,2.99-11.18,2.99-6.24,0-11.57-2.25-15.99-6.74-4.36-4.44-6.54-9.73-6.54-15.88,0-4.08,1.03-7.86,3.1-11.35,1.99-3.4,4.7-6.08,8.11-8.05,2.67-1.54,4.84-2.6,6.49-3.19,2.24-.82,4.63-1.22,7.17-1.22,6.24,0,11.57,2.25,15.99,6.74,4.36,4.44,6.54,9.73,6.54,15.88ZM179.21,23.91c0-5.54-1.95-10.27-5.85-14.19-3.9-3.92-8.67-5.88-14.3-5.88-3.11,0-6.07.68-8.88,2.05-2.75,1.86-4.91,4.24-6.49,7.14-1.63,3.02-2.45,6.24-2.45,9.68,0,5.56,1.95,10.29,5.86,14.2,3.91,3.91,8.67,5.86,14.29,5.86,3.11,0,6.07-.68,8.88-2.05,2.75-1.86,4.91-4.24,6.49-7.14,1.63-3.02,2.45-6.24,2.45-9.68Z"/>
      </g>
      <g>
        <path class="cls-1" d="M221.67,15.6c0,3.43-.96,6.38-2.88,8.85-1.54,1.97-3.96,3.91-7.26,5.8-2.37,1.37-4.91,2.05-7.63,2.05-4.14,0-7.7-1.46-10.7-4.38v16.14c0,.44-.45.97-1.35,1.61-.9.64-1.69.95-2.38.95s-1-.36-1-1.08v-28.74c0-2.79.7-5.37,2.11-7.74,1.37-2.31,3.22-4.14,5.55-5.49,2.18-1.27,3.78-2.1,4.78-2.48,1.67-.66,3.44-1,5.32-1,4.27,0,7.91,1.53,10.91,4.6,3.01,3.06,4.51,6.7,4.51,10.91ZM216.94,16.79c0-3.59-1.26-6.64-3.77-9.16-2.51-2.52-5.6-3.79-9.26-3.79-1.86,0-3.63.37-5.32,1.11-3.59,2.62-5.38,6.17-5.38,10.64,0,2.37.57,4.53,1.71,6.49,1.14,1.95,2.71,3.52,4.72,4.7,2.01,1.18,4.21,1.76,6.6,1.76,1.86,0,3.63-.37,5.32-1.11,3.58-2.62,5.38-6.17,5.38-10.64Z"/>
        <path class="cls-1" d="M257.61,43.74c0,.42-.24.76-.71,1.02-.53.38-1.06.75-1.59,1.11-.64.44-1.22.65-1.74.65h-11.41c-4.27,0-7.91-1.55-10.93-4.64-3-3.04-4.5-6.66-4.5-10.87v-6c-.34-.19-.51-.46-.51-.8,0-.32.17-.62.51-.88v-6.54c0-3.43.96-6.38,2.87-8.85,1.54-1.97,3.96-3.91,7.26-5.81,2.37-1.37,4.91-2.05,7.63-2.05h11.9c.82,0,1.22.32,1.22.97,0,.42-.24.76-.71,1.02-.53.38-1.06.75-1.59,1.11-.64.44-1.22.65-1.74.65h-11.41c-1.86,0-3.63.37-5.32,1.11-3.59,2.62-5.38,6.17-5.38,10.64v5.83h24.93c.82,0,1.22.32,1.22.97,0,.42-.24.76-.71,1.03-.53.38-1.06.75-1.59,1.11-.64.44-1.22.65-1.74.65h-22.11v4.64c0,3.59,1.26,6.64,3.77,9.16s5.6,3.78,9.26,3.78h11.9c.82,0,1.22.32,1.22.97Z"/>
        <path class="cls-1" d="M295.4,43.94c0,.57-.43,1.13-1.28,1.69-.85.56-1.63.84-2.33.84-.32,0-.57-.09-.74-.26l-13.92-13.92h-10.24v11.75c0,.44-.45.97-1.35,1.61-.9.64-1.69.95-2.38.95s-1-.36-1-1.08v-28.74c0-3.43.96-6.38,2.88-8.85,1.54-1.97,3.96-3.91,7.26-5.81,2.37-1.37,4.91-2.05,7.63-2.05,4.27,0,7.91,1.53,10.91,4.6,3.01,3.06,4.51,6.7,4.51,10.91,0,3.43-.96,6.38-2.88,8.85-1.54,1.97-3.96,3.91-7.26,5.8-.74.42-1.44.76-2.11,1.02l11.98,11.98c.21.21.31.44.31.68ZM290.62,16.79c0-3.59-1.26-6.64-3.77-9.16-2.51-2.52-5.6-3.79-9.26-3.79-1.86,0-3.63.37-5.32,1.11-3.58,2.62-5.38,6.17-5.38,10.64v12.95h13.03c1.86,0,3.63-.37,5.32-1.11,3.58-2.62,5.38-6.17,5.38-10.64Z"/>
        <path class="cls-1" d="M333.14,29.82c0,3.43-.96,6.38-2.88,8.85-1.54,1.97-3.96,3.91-7.26,5.81-2.37,1.37-4.91,2.05-7.63,2.05-4.27,0-7.91-1.55-10.93-4.64-3-3.04-4.5-6.66-4.5-10.87V2.56c0-.44.45-.97,1.35-1.61.9-.64,1.69-.95,2.38-.95s1,.36,1,1.08v28.74c0,3.59,1.26,6.64,3.77,9.16,2.51,2.52,5.6,3.78,9.26,3.78,1.86,0,3.63-.37,5.32-1.11,3.58-2.62,5.38-6.17,5.38-10.64V2.56c0-.44.45-.97,1.35-1.61.9-.64,1.69-.95,2.38-.95s1,.36,1,1.08v28.74Z"/>
      </g>
    </g>
  </g>
</svg>