<?xml version="1.0" encoding="UTF-8"?>
<svg id="Capa_2" xmlns="http://www.w3.org/2000/svg" viewBox="0 0 37.75 49.79">
  <defs>
    <style>
      .cls-1 {
        fill: #6b7280;
      }
    </style>
  </defs>
  <g id="Capa_1-2" data-name="Capa_1">
    <g>
      <path class="cls-1" d="M30.67,20.18c-.32,0-.62-.19-.75-.5-.17-.41.03-.89.44-1.06.61-.25,1.25-1.28,1.25-2.7,0-.45-.07-.89-.19-1.28l-.63,1.58c-.12.31-.42.51-.75.51h0c-.33,0-.63-.2-.75-.51l-.63-1.58c-.12.39-.19.82-.19,1.27,0,.99.32,1.92.85,2.43.32.31.33.82.02,1.15-.31.32-.82.33-1.15.02-.84-.81-1.34-2.15-1.34-3.59s.53-2.86,1.42-3.66c.2-.18.47-.25.73-.19.26.06.47.24.57.49l.48,1.19.48-1.19c.1-.25.31-.43.57-.49.26-.06.53.01.73.19.89.81,1.42,2.18,1.42,3.67,0,1.96-.91,3.65-2.26,4.2-.1.04-.2.06-.31.06Z"/>
      <path class="cls-1" d="M4.89,28.72c-.14,0-.27-.03-.4-.11-1.33-.76-2.37-1.48-3.19-2.23-.77-.68-1.57-1.53-1.22-2.86.2-.69.75-1.32,1.52-1.73.22-.12.45-.21.68-.28-.06-.22-.1-.44-.1-.66,0-.59.22-1.13.65-1.56.47-.47,1.04-.72,1.66-.7.19,0,.39.04.58.09.09-.35.23-.7.41-1.01.37-.66.87-1.09,1.45-1.24,1.36-.36,2.23.46,3,1.33,1.26,1.72,2.41,3.62,3.46,5.69.2.4.04.89-.36,1.09-.4.2-.89.04-1.09-.36-1.01-2-2.11-3.82-3.28-5.41-.81-.91-1.05-.85-1.32-.78-.11.03-.28.17-.46.47-.31.54-.38,1.18-.31,1.42.1.36-.06.75-.39.93-.33.18-.74.11-1-.17-.24-.27-.52-.44-.75-.44-.17-.02-.31.07-.47.22-.12.12-.17.25-.17.4,0,.27.17.6.42.84.27.26.32.68.13,1-.2.32-.59.47-.95.35-.26-.09-.67-.01-1.04.19-.37.19-.65.48-.72.72-.08.28-.08.5.74,1.23.73.67,1.68,1.33,2.9,2.02.39.22.53.72.3,1.1-.15.26-.42.41-.71.41Z"/>
      <path class="cls-1" d="M11.43,28.72c-.21,0-.41-.08-.57-.24l-4.83-4.83c-.32-.32-.32-.83,0-1.15s.83-.32,1.15,0l4.83,4.83c.32.32.32.83,0,1.15-.16.16-.37.24-.57.24Z"/>
      <path class="cls-1" d="M14.62,28.72c-.21,0-.41-.08-.57-.24l-3.01-3.01c-.32-.32-.32-.83,0-1.15l4.26-4.26c.3-.3.84-.3,1.15,0l2.36,2.36c.32.32.32.83,0,1.15s-.83.32-1.15,0l-1.79-1.79-3.11,3.11,2.44,2.44c.32.32.32.83,0,1.15-.16.16-.37.24-.57.24Z"/>
      <path class="cls-1" d="M24.94,49.79h-12.14c-7.06,0-12.81-5.74-12.81-12.81v-6.07c0-2.1,1.71-3.81,3.81-3.81h30.12c2.1,0,3.81,1.71,3.81,3.81v6.07c0,2.34-.64,4.62-1.84,6.61-.28.51-.61,1-.98,1.46-.36.44-.75.85-1.18,1.22-2.37,2.26-5.51,3.51-8.81,3.51ZM3.81,28.72c-1.21,0-2.19.98-2.19,2.19v6.07c0,6.17,5.02,11.19,11.19,11.19h12.14c2.89,0,5.63-1.1,7.72-3.09.38-.33.71-.68,1.01-1.04.31-.38.59-.8.82-1.23,0-.01.01-.02.02-.03,1.05-1.74,1.61-3.74,1.61-5.79v-6.07c0-1.21-.98-2.19-2.2-2.19H3.81Z"/>
      <path class="cls-1" d="M36.94,36.25H.81c-.45,0-.81-.36-.81-.81v-3.02c0-.45.36-.81.81-.81h36.13c.45,0,.81.36.81.81v3.02c0,.45-.36.81-.81.81ZM16.71,34.63h19.42v-1.4H1.62v1.4h15.09Z"/>
      <path class="cls-1" d="M24.74,28.72c-4.18,0-7.58-3.4-7.58-7.58,0-1.69,1.38-3.07,3.07-3.07s3.07,1.38,3.07,3.07c0,.8.65,1.45,1.45,1.45s1.45-.65,1.45-1.45.32-1.59.9-2.17c.58-.58,1.35-.9,2.17-.9h0c.82,0,1.59.32,2.17.9s.9,1.35.9,2.17h0c0,4.18-3.41,7.58-7.58,7.58ZM20.23,19.68c-.8,0-1.45.65-1.45,1.45,0,3.29,2.67,5.97,5.96,5.97s5.96-2.67,5.96-5.96h.81s-.81,0-.81,0c0-.39-.15-.75-.42-1.02s-.64-.42-1.02-.42h0c-.39,0-.75.15-1.02.42-.27.27-.42.64-.42,1.02,0,1.69-1.38,3.07-3.07,3.07s-3.07-1.38-3.07-3.07c0-.8-.65-1.45-1.45-1.45Z"/>
      <path class="cls-1" d="M18.35,24.2c-.15,0-.31-.04-.45-.14-.37-.25-.47-.75-.22-1.12.97-1.45,2.55-2.33,4.7-2.61.44-.06.85.25.91.7.06.44-.25.85-.7.91-1.69.22-2.85.85-3.56,1.91-.16.23-.41.36-.67.36Z"/>
      <path class="cls-1" d="M24.74,22.58h0c.45,0,.81.36.81.81v4.52c0,.45-.36.81-.81.81h0c-.45,0-.81-.36-.81-.81v-4.52c0-.45.36-.81.81-.81Z"/>
      <path class="cls-1" d="M30.69,25.19c-.3,0-.58-.16-.73-.45-.64-1.29-1.71-2.22-3.27-2.86-.41-.17-.61-.64-.44-1.06.17-.41.64-.61,1.06-.44,1.91.78,3.3,2,4.11,3.64.2.4.04.89-.37,1.09-.12.06-.24.08-.36.08Z"/>
      <path class="cls-1" d="M27.91,10.65H9.84c-.45,0-.81-.36-.81-.81,0-2.63,1.02-5.1,2.88-6.96,1.86-1.86,4.33-2.88,6.96-2.88,2.24,0,4.35.73,6.1,2.12.47.35.93.78,1.33,1.24.36.42.69.87.96,1.35.95,1.54,1.44,3.32,1.44,5.14,0,.45-.36.81-.81.81ZM10.69,9.03h16.37c-.12-1.24-.52-2.43-1.17-3.49,0,0,0-.01-.01-.02-.23-.39-.49-.76-.79-1.11-.33-.38-.7-.72-1.1-1.02-1.48-1.17-3.24-1.78-5.11-1.78-2.2,0-4.26.86-5.82,2.41-1.36,1.36-2.18,3.11-2.37,5Z"/>
      <path class="cls-1" d="M24.9,10.65h-12.04c-.45,0-.81-.36-.81-.81,0-3.72,3.03-6.75,6.75-6.75h.17c3.72,0,6.75,3.03,6.75,6.75,0,.45-.36.81-.81.81ZM13.73,9.03h10.3c-.39-2.44-2.51-4.32-5.06-4.32h-.17c-2.55,0-4.68,1.87-5.06,4.32Z"/>
      <path class="cls-1" d="M18.87,10.65c-.45,0-.81-.36-.81-.81V3.9c0-.45.36-.81.81-.81s.81.36.81.81v5.94c0,.45-.36.81-.81.81Z"/>
      <path class="cls-1" d="M18.87,10.65c-.21,0-.41-.08-.57-.24-.32-.32-.32-.83,0-1.15l4.24-4.24c.32-.32.83-.32,1.15,0s.32.83,0,1.15l-4.24,4.24c-.16.16-.37.24-.57.24Z"/>
      <path class="cls-1" d="M18.87,10.65c-.21,0-.41-.08-.57-.24l-4.24-4.24c-.32-.32-.32-.83,0-1.15s.83-.32,1.15,0l4.24,4.24c.32.32.32.83,0,1.15-.16.16-.37.24-.57.24Z"/>
      <path class="cls-1" d="M21.88,14.08c-.45,0-.81-.36-.81-.81v-.44c0-.45.36-.81.81-.81s.81.36.81.81v.44c0,.45-.36.81-.81.81Z"/>
      <path class="cls-1" d="M18.87,16.67c-.45,0-.81-.36-.81-.81v-.54c0-.45.36-.81.81-.81s.81.36.81.81v.54c0,.45-.36.81-.81.81Z"/>
      <path class="cls-1" d="M14.36,15.7c-.45,0-.81-.36-.81-.81v-.66c0-.45.36-.81.81-.81s.81.36.81.81v.66c0,.45-.36.81-.81.81Z"/>
      <path class="cls-1" d="M24.9,17.21c-.45,0-.81-.36-.81-.81v-.54c0-.45.36-.81.81-.81s.81.36.81.81v.54c0,.45-.36.81-.81.81Z"/>
    </g>
  </g>
</svg>