<?xml version="1.0" encoding="UTF-8"?>
<svg id="Capa_2" xmlns="http://www.w3.org/2000/svg" viewBox="0 0 40 52.76">
  <defs>
    <style>
      .cls-1 {
        fill: #6b7280;
      }
    </style>
  </defs>
  <g id="Capa_1-2" data-name="Capa_1">
    <path class="cls-1" d="M33.18,46.51c.42.07.83-.22.89-.65l3.53-22.94c1.86-.1,2.5-1.16,2.4-2.79-.04-.9-.73-1.54-1.67-1.99.01-.03.31-2.04.31-2.07.07-.43-.22-.82-.65-.89s-.82.22-.89.65l-.26,1.74c-1.5-.46-4.04-.82-5.08-.9l-2.51-6.99c.87-.73,1.25-1.94,1.6-3.55.69-3.25-.2-5.22-2.6-5.85-2.1-.53-4.45-.66-5.92,2.54-.79,1.71-.6,3.93.52,5.49-.04.01-.12.04-.22.08-2.64-3.22-8.41-.82-7.29,3.41-1.65,1.04-2.76,2.08-3.31,3.1-1.76,3.15.35,9.02,1.85,11.93L.18,43.7c-.27.34-.22.83.12,1.09.34.27.82.22,1.09-.12l13.51-16.64c.36.2.79.27,1.21.21-.69,4.24-1.52,8.53-1.89,9.22-1.35,1.3-8.53,8.14-7.13,10.13.66,1.41,3.63,4.73,5.51,5.16,2.45.22.87-3.93,1.05-5.61.72-.69,2.63-2.63,3.62-3.67,3.39-3.53,3.54-4.05,3.62-4.32.05-.16.12-.43.22-.82.29-1.17,1.33-4.92,1.99-5.74.2.3.56,1.04.96,2.8.34,1.52.55,3.12.55,3.81-.01,1.94-.05,4.39.05,7.16.05,1.3.13,2.34.23,3.09.1.7.27,1.87,1.17,1.97,4.01.46,6.69.31,7.51-.47.31-.26.48-.6.51-.96.05-1.72-1.73-2.04-2.8-2.64.1-.57.07-1.67-.08-3.24-.17-1.78-.53-4.66-.94-7.66-.44-3.23-2.96-8.89-3.55-10.25.52-1.59.89-3.16,1.12-4.73,1.2,1.07,1.68,1.07,1.86,1.07.12,0,.35.04.62.07.7.1,1.8.25,3.59.3.68.01,1.45.01,2.12.01l-3.49,22.65c-.1.48.2.89.62.95h0ZM25.21,25.73c-1.63.77-3.87.57-6.68-.56.05-.66-.1-1.43-.21-2.11,3.2-2.68,4.54-7.41,5.53-13.67.66.51,1.5.78,2.34.89.55,4.92.76,10.18-.99,15.45h0ZM23.73,3.5c.95-2.12,2.32-2.15,4.11-1.68,1.15.29,2.11.98,1.47,4.01-.31,1.5-.64,2.29-1.05,2.67-.27.23-.79.47-2.3.16-1.18-.25-1.81-1.04-2.12-1.68-.55-1.07-.57-2.43-.1-3.48h0ZM18,8.86c.92-.49,2.12-.53,3.01.17-1.2.47-3.01,1.28-4.27,1.98-.12-1,.52-1.76,1.26-2.15ZM13.38,15.68c1.16-2.15,5.94-4.35,8.75-5.43-.98,5.62-2.21,8.96-4.13,10.96-.26-1.39-.51-2.6-.65-3.22l3.32-3.29c.7-.76-.34-1.81-1.09-1.11l-3.62,3.59c-.2.2-.27.47-.21.73,0,.01.21.92.47,2.21l-2.72,1.51c-.73-2.63-.77-4.75-.12-5.96h0ZM15.45,26.53c-.29-.44-.92-1.76-1.48-3.36l2.55-1.41c.14.82.3,1.69.42,2.54s0,2.06-.87,2.4c-.14.05-.43.1-.61-.17h0ZM12.48,46.12c-.86.61-.1,3.49-.07,4.93-1.07-.64-3.28-2.76-3.92-4.09-.01-.09-.07-1.04,3.09-4.53l2.37,2.24c-.65.65-1.18,1.17-1.47,1.45h0ZM31.33,49.14c.43.18,1.05.46,1.17.7-.26.16-1.42.56-5.95.09-.13-.46-.3-1.63-.36-4.54l3.53-.34c.08,1.02.1,1.78.03,2.06-.38,1.17.86,1.71,1.59,2.03h0ZM28.77,37.1c.21,1.52.57,4.19.81,6.41l-3.41.33c-.01-1.18-.01-3.1,0-4.58,0-.86-.25-2.79-.68-4.52-.79-3.27-1.65-3.74-2.3-3.79-1.46-.12-2.36,2.29-3.59,7.04-.09.33-.16.6-.2.73-.26.56-2.46,2.9-4.36,4.84l-2.4-2.27c.73-.77,1.74-1.78,2.72-2.72.25-.25.6-.59,1.61-6.18.43-2.37.81-4.69.89-5.19.1-.16.21-.31.3-.49,2.7,1,4.9,1.46,7.32.62.86,1.95,2.99,6.91,3.29,9.78h0ZM29.74,21.02c-.29-.13-1.04-.78-1.71-1.47.26-3.16.07-6.25-.26-9.22h.04l2.64,7.36c.1.29.36.49.68.52.01,0,1.13.08,2.51.3l-.38,2.88c-1.77-.09-2.37-.27-3.53-.36h0ZM34.91,21.4h-.07l.34-2.62c2.62.57,3.23,1.22,3.24,1.43.03.66-.08.89-.13.95-.22.3-2.33.22-3.39.23Z"/>
  </g>
</svg>