<?xml version="1.0" encoding="UTF-8"?>
<svg id="Capa_2" xmlns="http://www.w3.org/2000/svg" viewBox="0 0 45 51.29">
  <defs>
    <style>
      .cls-1 {
        fill: #6b7280;
      }
    </style>
  </defs>
  <g id="Capa_1-2" data-name="Capa_1">
    <path class="cls-1" d="M34.56,5.61c.65,0,1.19.53,1.19,1.19s-.53,1.19-1.19,1.19-1.19-.53-1.19-1.19.53-1.19,1.19-1.19ZM40.4,5.92c-.07-.33-.2-.87-.44-1.38-.67-1.46-2.44-3.31-4.88-4.12-2.22-.74-4.58-.49-6.82.72-4.34,2.33-5.52,8.08-6.38,12.28-.11.55-.22,1.07-.33,1.56-2.53.2-5.44,3.58-7.49,6.5-3.86,5.5-7.71,13.73-6.75,15.79-1.73,1.33-3.2,2.35-4.29,3.11C1.01,41.75.1,42.38,0,43.21c-.03.24.01.59.35.95.46.5,1.23.72,2.23.72.28,0,.58-.02.89-.06-2.61,3.11-3.64,4.68-2.95,5.63.27.37.82.82,1.86.83h.02c3.67,0,11.31-5.43,16.63-11.55.05.2.13.39.25.56.3.42.78.66,1.3.66h10.86c.54,0,1.04-.26,1.34-.7.29-.43.35-.98.16-1.46-.23-.6-.67-1.46-1.43-2.17,0,0-.01-.01-.02-.02,1.96-.97,3.6-2.4,4.91-4.31,3.32-5.46,2.26-12.2,1.34-15.17,1.46-.28,2.82-1.01,3.75-1.77.5.63.91,1.14,1.5,1.14.04,0,.09,0,.13,0,.95-.11,1.6-1.57,1.8-2.87.19-1.23.38-5.36-4.53-7.71h0ZM12.71,29.45c1.42.36,3.37-.09,4.63-.92.26.75.9,1.29,1.88,1.58.4.12.83.17,1.28.17,2.7,0,6.21-2.03,9.2-5.24-3.56,5.62-8.54,8.68-11.4,8.29-.54-.07-.96-.3-1.23-.67-.26-.36-.37-.84-.29-1.28.05-.26-.09-.52-.33-.64-.24-.12-.53-.06-.71.13-.67.73-3.08,1.69-4.3,1.09-.68-.34-.89-1.22-.65-2.59.14-.28.28-.56.43-.85.34.45.84.77,1.48.93h0ZM9.73,31.7c.27.7.73,1.1,1.18,1.33,1.37.69,3.43.14,4.74-.61.09.34.24.67.45.95.47.64,1.18,1.04,2.04,1.15.2.03.41.04.63.04,2.47,0,5.84-1.73,8.9-4.95-1.67,2.47-3.5,4.14-4.6,5.01-2.62,2.09-5.49,3.29-7.31,3.05-.34-.04-.57-.16-.7-.34-.29-.4-.19-1.17-.1-1.72.05-.27-.09-.53-.33-.65-.24-.12-.54-.05-.71.15-.45.52-3,2.54-4.57,2.34-.44-.05-.74-.28-.96-.71-.27-.54.25-2.49,1.34-5.05h0ZM1.2,43.35c.07-.32,1.31-1.17,2.5-1.99,1.11-.76,2.6-1.8,4.36-3.16.33.25.71.41,1.14.46,1.48.18,3.3-.87,4.49-1.75.04.41.16.81.41,1.14.18.25.43.44.72.58-5.96,4.11-12.52,5.88-13.62,4.71ZM2.4,50.09h-.02c-.65,0-.83-.25-.87-.29-.11-.68,2.47-3.74,3.83-5.33,3.41-.88,7.77-3.06,11.18-5.58.61-.03,1.26-.15,1.96-.36-5.34,6.31-13.04,11.56-16.08,11.56ZM20.26,39.6c-.04-.06-.11-.19-.05-.35l.45-1.37c1.26.16,2.46.26,3.59.26,1.17,0,2.25-.11,3.29-.28.33.39.62.85.84,1.38.06.16.06.29,0,.38-.06.09-.2.15-.38.15h-7.4c-.13,0-.25-.06-.33-.17ZM30.69,37.51c.6.56.95,1.25,1.13,1.74.06.16,0,.28-.04.35-.04.05-.14.18-.34.18h-1.87c.06-.31.04-.64-.08-.98-.18-.45-.41-.85-.66-1.22.48-.12.94-.26,1.39-.43.16.11.32.21.47.35ZM35.4,31.66c-2.78,4.02-7.16,5.71-13.34,5.17.59-.38,1.19-.8,1.78-1.26,2.35-1.87,7.89-7.18,8.68-15.99.03-.33-.21-.62-.54-.65-.31-.02-.62.21-.65.54-.06.69-.17,1.36-.29,2-3.7,5.4-8.91,8.23-11.47,7.48-.94-.27-1.27-.76-1.12-1.64.05-.29-.11-.57-.39-.67-.27-.1-.58.01-.72.26-.52.89-2.84,1.75-4.33,1.37-.66-.17-.98-.54-1.05-1.14.9-1.65,1.94-3.36,3.09-4.99,2.81-4,5.33-6.18,6.92-5.99.05,0,.08,0,.11,0,.26-.02.48-.19.54-.45.15-.62.29-1.32.44-2.05.81-3.97,1.93-9.4,5.77-11.46,1.98-1.06,3.95-1.28,5.87-.63,2.08.7,3.62,2.29,4.17,3.49.17.37.27.77.33,1.03-.08.07-.18.16-.27.25-.49-1.59-1.69-2.82-3.36-3.32-1.95-.59-3.93-.02-5.05,1.45-1.06,1.39-1.3,3.63-.64,5.84.93,3.1,3.32,5.55,6.59,6.79.87,2.45,2.18,9.21-1.07,14.56h0ZM37.1,11.67c1.73.83,2.83,1.83,3.64,2.77-.83.67-2.09,1.33-3.4,1.54-.6-1.54-.58-3.01-.24-4.31ZM35.92,15.55c-2.41-1.19-4.16-3.17-4.89-5.59-.56-1.85-.39-3.68.44-4.77.81-1.07,2.28-1.47,3.75-1.03,1.54.46,2.53,1.68,2.71,3.26-1.42,1.78-2.94,4.75-2.01,8.13h0ZM43.01,15.27c-.14-.12-.96-1.15-.96-1.15-.91-1.12-2.25-2.5-4.56-3.59.7-1.66,1.8-2.92,2.45-3.49,3.31,1.61,3.85,4.12,3.86,5.5.02,1.46-.51,2.51-.79,2.74h0Z"/>
  </g>
</svg>