<?xml version="1.0" encoding="UTF-8"?>
<svg id="Capa_2" xmlns="http://www.w3.org/2000/svg" viewBox="0 0 66 46.81">
  <defs>
    <style>
      .cls-1 {
        fill: #6b7280;
        fill-rule: evenodd;
      }
    </style>
  </defs>
  <g id="Capa_1-2" data-name="Capa_1">
    <path class="cls-1" d="M21.03,14.61h-11.76c-2.55,0-4.63-2.08-4.63-4.63,0-2.74,2.37-4.88,5.1-4.6.15-2.99,2.63-5.38,5.66-5.38s5.5,2.38,5.66,5.36c2.53.02,4.58,2.09,4.58,4.63s-2.08,4.63-4.63,4.63h0ZM65.16,46.81H.84c-.46,0-.84-.38-.84-.84v-4.5c0-.46.38-.84.84-.84h5.61v-3.66c0-.46.38-.84.84-.84h5.43c0-.74-.1-3.59.07-3.98l4.08-10.03c1.25-3.07,5.77-2.18,7.89,1.01,3.73-2.76,7.22-7.75,8.15-14.32.53-3.76,6.92-2.1,8.77,4.61.22.73,2.04,6.38,5.88,8.26,10.06,4.93,16.55,3.7,18.44,19.68v4.59c0,.46-.37.84-.83.84h0ZM59.55,40.64h4.66c-1.92-14.06-7.9-12.79-17.39-17.44-4.38-2.14-6.49-8.23-6.76-9.34-1.05-4.25-5.26-6.47-5.49-4.8-1.02,7.19-4.94,12.71-9.07,15.62.83,2.13,2.33,4.78,4.44,6.97h22.52c.46,0,.84.38.84.84v3.66h5.43c.46,0,.84.38.84.84v3.66h0ZM1.68,45.13h62.65v-2.82H1.68v2.82ZM8.13,40.64h49.75v-2.82H8.13v2.82ZM14.8,31.65h12.88c-2.18-2.64-3.08-4.72-3.99-7-.84-2.11-4.47-3.86-5.27-1.89l-3.62,8.89h0ZM14.39,36.14h37.21v-2.82H14.39v2.82ZM9.27,7.03c-1.63,0-2.95,1.32-2.95,2.95s1.32,2.95,2.95,2.95h11.76c1.63,0,2.95-1.32,2.95-2.95,0-1.89-1.75-3.29-3.59-2.88-.56.12-1.08-.35-1.01-.92.3-2.39-1.56-4.5-3.96-4.5s-4.34,2.21-3.94,4.64c.1.64-.53,1.15-1.13.91-.34-.13-.7-.2-1.07-.2h0Z"/>
  </g>
</svg>