<?xml version="1.0" encoding="utf-8"?>
<!-- Generator: Adobe Illustrator 16.0.0, SVG Export Plug-In . SVG Version: 6.00 Build 0)  -->
<!DOCTYPE svg PUBLIC "-//W3C//DTD SVG 1.1//EN" "http://www.w3.org/Graphics/SVG/1.1/DTD/svg11.dtd">
<svg version="1.1" id="Layer_1" xmlns="http://www.w3.org/2000/svg" xmlns:xlink="http://www.w3.org/1999/xlink" x="0px" y="0px"
	 width="84.234px" height="66.068px" viewBox="0 0 84.234 66.068" enable-background="new 0 0 84.234 66.068" xml:space="preserve">
<g>
	<path fill="#8aacb6" d="M46.399,15.059c0-4.016,1.621-7.528,4.858-10.541C54.498,1.506,58.32,0,62.723,0
		c6.919,0,12.233,2.29,15.944,6.871c3.712,4.579,5.566,10.917,5.566,19.011c0,7.529-3.191,15.121-9.576,22.776
		c-6.386,7.653-14.075,13.458-23.072,17.41l-4.15-6.682c7.119-3.451,12.693-7.467,16.726-12.047
		c4.032-4.581,6.362-10.133,6.992-16.659h-5.291c-3.904,0-7.085-0.438-9.541-1.316c-2.456-0.88-4.441-2.104-5.953-3.671
		c-1.447-1.506-2.471-3.169-3.069-4.987C46.699,18.885,46.399,17.003,46.399,15.059z M0,15.059c0-4.016,1.621-7.528,4.859-10.541
		C8.099,1.506,11.921,0,16.323,0c6.919,0,12.234,2.29,15.945,6.871c3.712,4.579,5.565,10.917,5.565,19.011
		c0,7.529-3.19,15.121-9.576,22.776c-6.385,7.653-14.074,13.458-23.07,17.41l-4.151-6.682c7.118-3.451,12.693-7.467,16.726-12.047
		c4.031-4.581,6.361-10.133,6.991-16.659h-5.291c-3.903,0-7.085-0.438-9.541-1.316c-2.456-0.88-4.44-2.104-5.953-3.671
		c-1.446-1.506-2.471-3.169-3.068-4.987C0.301,18.885,0,17.003,0,15.059z"/>
</g>
</svg>
