<?xml version="1.0" encoding="utf-8"?>
<!-- Generator: Adobe Illustrator 16.0.0, SVG Export Plug-In . SVG Version: 6.00 Build 0)  -->
<!DOCTYPE svg PUBLIC "-//W3C//DTD SVG 1.1//EN" "http://www.w3.org/Graphics/SVG/1.1/DTD/svg11.dtd">
<svg version="1.1" id="Layer_1" xmlns="http://www.w3.org/2000/svg" xmlns:xlink="http://www.w3.org/1999/xlink" x="0px" y="0px"
	 width="84.234px" height="66.068px" viewBox="0 0 84.234 66.068" enable-background="new 0 0 84.234 66.068" xml:space="preserve">
<g>
	<path fill="#8aacb6" d="M37.835,51.011c0,4.016-1.621,7.529-4.858,10.541c-3.239,3.012-7.062,4.518-11.464,4.518
		c-6.92,0-12.234-2.289-15.945-6.87C1.854,54.62,0,48.281,0,40.188c0-7.528,3.191-15.121,9.576-22.775
		C15.962,9.757,23.651,3.953,32.648,0L36.8,6.682c-7.118,3.451-12.693,7.467-16.726,12.047c-4.032,4.581-6.362,10.133-6.992,16.659
		h5.291c3.904,0,7.085,0.439,9.541,1.317c2.456,0.879,4.441,2.103,5.953,3.67c1.447,1.506,2.471,3.169,3.069,4.987
		C37.535,47.185,37.835,49.066,37.835,51.011z M84.234,51.011c0,4.016-1.621,7.529-4.859,10.541s-7.062,4.518-11.464,4.518
		c-6.919,0-12.233-2.289-15.945-6.87C48.254,54.62,46.4,48.282,46.4,40.188c0-7.528,3.19-15.121,9.576-22.775
		C62.36,9.757,70.051,3.953,79.047,0l4.151,6.682c-7.118,3.451-12.693,7.467-16.725,12.047c-4.032,4.581-6.362,10.133-6.992,16.659
		h5.291c3.903,0,7.085,0.439,9.541,1.317c2.456,0.879,4.44,2.103,5.953,3.67c1.446,1.506,2.471,3.169,3.068,4.987
		C83.934,47.185,84.234,49.066,84.234,51.011z"/>
</g>
</svg>
