<?xml version="1.0" encoding="UTF-8"?>
<svg id="Capa_2" xmlns="http://www.w3.org/2000/svg" viewBox="0 0 55 44.47">
  <defs>
    <style>
      .cls-1 {
        fill: #6b7280;
      }
    </style>
  </defs>
  <g id="Capa_1-2" data-name="Capa_1">
    <g>
      <g id="path99">
        <path class="cls-1" d="M1.61,36.2c-.65,0-1.26-.4-1.51-1.04-.31-.83.11-1.76.94-2.08l.15-.06c4.26-1.61,8.67-3.27,13.36-3.27,2.52,0,4.82.87,7.04,1.72,2.04.77,3.97,1.51,5.9,1.51s3.86-.73,5.9-1.51c2.22-.84,4.52-1.72,7.04-1.72,4.55,0,9.03,1.66,12.99,3.13l.51.19c.83.31,1.26,1.24.95,2.07-.31.83-1.24,1.26-2.07.95l-.51-.19c-3.88-1.44-7.9-2.93-11.87-2.93-1.93,0-3.86.73-5.9,1.51-2.22.84-4.52,1.72-7.04,1.72s-4.82-.87-7.04-1.72c-2.04-.77-3.97-1.51-5.9-1.51-4.1,0-8.04,1.49-12.22,3.06l-.15.06c-.19.07-.38.1-.57.1Z"/>
      </g>
      <g id="path103">
        <path class="cls-1" d="M42.22,31.65c-.09,0-.18,0-.28-.02-.88-.15-1.47-.98-1.31-1.86.13-.75.19-1.51.19-2.27,0-7.35-5.98-13.32-13.32-13.32s-13.32,5.98-13.32,13.32c0,.74.06,1.49.19,2.22.15.88-.44,1.71-1.32,1.86s-1.71-.44-1.86-1.32c-.15-.91-.23-1.83-.23-2.75,0-9.12,7.42-16.54,16.54-16.54s16.54,7.42,16.54,16.54c0,.94-.08,1.89-.24,2.82-.14.78-.82,1.34-1.59,1.34Z"/>
      </g>
      <g id="path107">
        <path class="cls-1" d="M4.94,29.11H1.61c-.89,0-1.61-.72-1.61-1.61s.72-1.61,1.61-1.61h3.33c.89,0,1.61.72,1.61,1.61s-.72,1.61-1.61,1.61Z"/>
      </g>
      <g id="path111">
        <path class="cls-1" d="M7.96,17.83c-.27,0-.55-.07-.8-.22l-2.88-1.67c-.77-.45-1.03-1.43-.59-2.2s1.43-1.03,2.2-.59l2.88,1.67c.77.45,1.03,1.43.59,2.2-.3.52-.84.81-1.4.81Z"/>
      </g>
      <g id="path115">
        <path class="cls-1" d="M16.22,9.58c-.56,0-1.1-.29-1.4-.81l-1.66-2.88c-.44-.77-.18-1.76.59-2.2.77-.45,1.76-.18,2.2.59l1.66,2.88c.44.77.18,1.76-.59,2.2-.25.15-.53.22-.8.22Z"/>
      </g>
      <g id="path119">
        <path class="cls-1" d="M27.5,6.55c-.89,0-1.61-.72-1.61-1.61V1.61c0-.89.72-1.61,1.61-1.61s1.61.72,1.61,1.61v3.33c0,.89-.72,1.61-1.61,1.61Z"/>
      </g>
      <g id="path123">
        <path class="cls-1" d="M38.78,9.58c-.27,0-.55-.07-.8-.22-.77-.45-1.03-1.43-.59-2.2l1.67-2.88c.45-.77,1.43-1.03,2.2-.59.77.45,1.03,1.43.59,2.2l-1.67,2.88c-.3.52-.84.81-1.4.81Z"/>
      </g>
      <g id="path127">
        <path class="cls-1" d="M47.04,17.83c-.56,0-1.1-.29-1.4-.81-.44-.77-.18-1.76.59-2.2l2.88-1.67c.77-.45,1.76-.18,2.2.59.44.77.18,1.76-.59,2.2l-2.88,1.67c-.25.15-.53.22-.8.22Z"/>
      </g>
      <g id="path131">
        <path class="cls-1" d="M53.39,29.11h-3.33c-.89,0-1.61-.72-1.61-1.61s.72-1.61,1.61-1.61h3.33c.89,0,1.61.72,1.61,1.61s-.72,1.61-1.61,1.61Z"/>
      </g>
      <g id="path135">
        <path class="cls-1" d="M10.53,44.47c-.67,0-1.29-.42-1.52-1.08-.29-.84.15-1.76.99-2.05.62-.21,1.18-.41,1.7-.6,2.88-1.02,4.62-1.64,7.32-1.64,1.73,0,3.3.6,4.82,1.18,1.3.5,2.53.97,3.67.97s2.36-.47,3.67-.97c1.52-.58,3.09-1.18,4.82-1.18,3.14,0,6.68,1.35,9.02,2.24.83.32,1.27,1.26.95,2.09-.32.83-1.23,1.26-2.06.94-2.16-.82-5.36-2.04-7.91-2.04-1.13,0-2.37.47-3.67.97-1.52.58-3.09,1.18-4.82,1.18s-3.3-.6-4.82-1.18c-1.3-.5-2.53-.97-3.67-.97-2.14,0-3.43.46-6.24,1.45-.52.19-1.09.39-1.72.61-.17.06-.35.09-.53.09Z"/>
      </g>
    </g>
  </g>
</svg>